<?xml version="1.0" standalone="no"?>
<!DOCTYPE svg PUBLIC "-//W3C//DTD SVG 20010904//EN"
 "http://www.w3.org/TR/2001/REC-SVG-20010904/DTD/svg10.dtd">
<svg version="1.0" xmlns="http://www.w3.org/2000/svg"
 width="45.000000pt" height="30.000000pt" viewBox="0 0 45.000000 30.000000"
 preserveAspectRatio="xMidYMid meet">

<g transform="translate(0.000000,30.000000) scale(0.100000,-0.100000)"
fill="#000000" stroke="none">
<path d="M140 287 c-39 -12 -140 -107 -140 -132 0 -24 81 -106 125 -126 94
-43 223 -9 285 74 16 22 30 47 30 54 0 8 -21 36 -46 63 -68 72 -159 97 -254
67z m135 -18 c47 -13 95 -47 125 -89 l21 -29 -38 -42 c-90 -100 -219 -105
-310 -14 -24 23 -43 50 -43 60 0 28 82 101 126 113 53 14 72 14 119 1z"/>
<path d="M165 215 c-36 -35 -35 -96 1 -124 59 -47 138 -9 138 66 0 72 -89 109
-139 58z m93 -11 c34 -23 27 -83 -10 -104 -25 -13 -31 -13 -55 0 -37 20 -43
70 -14 99 25 25 49 27 79 5z"/>
</g>
</svg>
