<?xml version="1.0" standalone="no"?>
<!DOCTYPE svg PUBLIC "-//W3C//DTD SVG 20010904//EN"
 "http://www.w3.org/TR/2001/REC-SVG-20010904/DTD/svg10.dtd">
<svg version="1.0" xmlns="http://www.w3.org/2000/svg"
 width="35.000000pt" height="25.000000pt" viewBox="0 0 35.000000 25.000000"
 preserveAspectRatio="xMidYMid meet">

<g transform="translate(0.000000,25.000000) scale(0.100000,-0.100000)"
fill="#000000" stroke="none">
<path d="M3 238 c5 -18 339 -18 345 0 3 9 -36 12 -173 12 -137 0 -176 -3 -172
-12z"/>
<path d="M5 130 c-3 -6 0 -12 7 -15 26 -10 333 0 331 10 -4 14 -329 19 -338 5z"/>
<path d="M7 24 c-20 -20 8 -24 169 -24 136 0 175 3 172 12 -4 10 -48 14 -169
16 -91 1 -168 -1 -172 -4z"/>
</g>
</svg>
