<?xml version="1.0" encoding="UTF-8"?>
<!DOCTYPE svg PUBLIC "-//W3C//DTD SVG 1.1//EN" "http://www.w3.org/Graphics/SVG/1.1/DTD/svg11.dtd">
<svg xmlns="http://www.w3.org/2000/svg" version="1.1" width="46px" height="44px" style="shape-rendering:geometricPrecision; text-rendering:geometricPrecision; image-rendering:optimizeQuality; fill-rule:evenodd; clip-rule:evenodd" xmlns:xlink="http://www.w3.org/1999/xlink">
<g><path style="opacity:0.95" fill="#495d57" d="M 20.5,-0.5 C 21.8333,-0.5 23.1667,-0.5 24.5,-0.5C 27.3657,4.05741 30.3657,8.55741 33.5,13C 37.5845,13.2332 41.5845,13.7332 45.5,14.5C 45.5,16.5 45.5,18.5 45.5,20.5C 44.5655,21.5676 44.2322,22.901 44.5,24.5C 40.5541,24.5123 38.8874,22.5123 39.5,18.5C 28.1667,18.5 16.8333,18.5 5.5,18.5C 6.44405,23.7765 7.77738,28.9432 9.5,34C 14.8229,34.4994 20.1563,34.666 25.5,34.5C 25.5,36.1667 25.5,37.8333 25.5,39.5C 19.1579,39.6662 12.8246,39.4995 6.5,39C 5.29857,38.0975 4.46524,36.9308 4,35.5C 2.94172,30.2441 1.44172,25.2441 -0.5,20.5C -0.5,18.5 -0.5,16.5 -0.5,14.5C 3.41549,13.7332 7.41549,13.2332 11.5,13C 14.6343,8.55741 17.6343,4.05741 20.5,-0.5 Z M 21.5,7.5 C 23.8089,8.38774 25.4756,10.0544 26.5,12.5C 23.8333,13.8333 21.1667,13.8333 18.5,12.5C 19.7629,10.9713 20.7629,9.30459 21.5,7.5 Z"/></g>
<g><path style="opacity:0.891" fill="#4a5e58" d="M 19.5,22.5 C 23.7555,21.4545 26.4222,22.9545 27.5,27C 25.5802,31.7299 22.5802,32.5633 18.5,29.5C 17.3284,26.9946 17.6617,24.6613 19.5,22.5 Z"/></g>
<g><path style="opacity:0.919" fill="#495e57" d="M 45.5,32.5 C 45.5,34.1667 45.5,35.8333 45.5,37.5C 43.5,37.5 41.5,37.5 39.5,37.5C 39.5,39.5 39.5,41.5 39.5,43.5C 37.8333,43.5 36.1667,43.5 34.5,43.5C 34.5,41.5 34.5,39.5 34.5,37.5C 32.5,37.5 30.5,37.5 28.5,37.5C 28.5,35.8333 28.5,34.1667 28.5,32.5C 30.5,32.5 32.5,32.5 34.5,32.5C 34.5,30.5 34.5,28.5 34.5,26.5C 36.1667,26.5 37.8333,26.5 39.5,26.5C 39.5,28.5 39.5,30.5 39.5,32.5C 41.5,32.5 43.5,32.5 45.5,32.5 Z"/></g>
</svg>
