<?xml version="1.0" encoding="UTF-8"?>
<!DOCTYPE svg PUBLIC "-//W3C//DTD SVG 1.1//EN" "http://www.w3.org/Graphics/SVG/1.1/DTD/svg11.dtd">
<svg xmlns="http://www.w3.org/2000/svg" version="1.1" width="46px" height="47px" style="shape-rendering:geometricPrecision; text-rendering:geometricPrecision; image-rendering:optimizeQuality; fill-rule:evenodd; clip-rule:evenodd" xmlns:xlink="http://www.w3.org/1999/xlink">
<g><path style="opacity:0.919" fill="#485d56" d="M 20.5,-0.5 C 21.8333,-0.5 23.1667,-0.5 24.5,-0.5C 27.6143,4.22146 30.6143,9.05479 33.5,14C 37.4862,14.4988 41.4862,14.6655 45.5,14.5C 45.5,16.8333 45.5,19.1667 45.5,21.5C 44.5655,22.5676 44.2322,23.901 44.5,25.5C 40.5541,25.5123 38.8874,23.5123 39.5,19.5C 28.1667,19.5 16.8333,19.5 5.5,19.5C 6.20395,24.9825 7.53729,30.3158 9.5,35.5C 14.7921,36.4948 20.1254,36.8282 25.5,36.5C 25.5,38.1667 25.5,39.8333 25.5,41.5C 19.1579,41.6662 12.8246,41.4995 6.5,41C 3.47008,34.6911 1.13675,28.1911 -0.5,21.5C -0.5,19.1667 -0.5,16.8333 -0.5,14.5C 3.51383,14.6655 7.51383,14.4988 11.5,14C 14.3857,9.05479 17.3857,4.22146 20.5,-0.5 Z M 21.5,7.5 C 23.951,9.1226 25.951,11.2893 27.5,14C 24.4459,14.8214 21.4459,14.6548 18.5,13.5C 19.5588,11.4664 20.5588,9.46641 21.5,7.5 Z"/></g>
<g><path style="opacity:0.924" fill="#495e57" d="M 19.5,23.5 C 26.6095,22.9037 28.6095,25.7371 25.5,32C 18.2153,32.9343 16.2153,30.1009 19.5,23.5 Z"/></g>
<g><path style="opacity:0.943" fill="#495e57" d="M 45.5,34.5 C 45.5,36.1667 45.5,37.8333 45.5,39.5C 43.5,39.5 41.5,39.5 39.5,39.5C 39.5,41.5 39.5,43.5 39.5,45.5C 37.8333,45.5 36.1667,45.5 34.5,45.5C 34.5,43.5 34.5,41.5 34.5,39.5C 32.5,39.5 30.5,39.5 28.5,39.5C 28.5,37.8333 28.5,36.1667 28.5,34.5C 30.5,34.5 32.5,34.5 34.5,34.5C 34.5,32.1667 34.5,29.8333 34.5,27.5C 36.1667,27.5 37.8333,27.5 39.5,27.5C 39.5,29.8333 39.5,32.1667 39.5,34.5C 41.5,34.5 43.5,34.5 45.5,34.5 Z"/></g>
</svg>
