<?xml version="1.0" encoding="UTF-8"?>
<!DOCTYPE svg PUBLIC "-//W3C//DTD SVG 1.1//EN" "http://www.w3.org/Graphics/SVG/1.1/DTD/svg11.dtd">
<svg xmlns="http://www.w3.org/2000/svg" version="1.1" width="60px" height="38px" style="shape-rendering:geometricPrecision; text-rendering:geometricPrecision; image-rendering:optimizeQuality; fill-rule:evenodd; clip-rule:evenodd" xmlns:xlink="http://www.w3.org/1999/xlink">
<g><path style="opacity:0.764" fill="#000619" d="M 11.5,-0.5 C 22.1667,-0.5 32.8333,-0.5 43.5,-0.5C 43.8503,6.3415 45.1836,13.0082 47.5,19.5C 46.9344,21.6969 46.2677,23.8636 45.5,26C 48.1853,29.581 48.852,33.4143 47.5,37.5C 45.8333,37.5 44.1667,37.5 42.5,37.5C 41.1944,35.1838 39.8611,32.8505 38.5,30.5C 32.7894,30.3167 28.7894,27.6501 26.5,22.5C 21.2824,21.811 16.1157,21.1443 11,20.5C 10.2055,13.4197 10.3722,6.41974 11.5,-0.5 Z M 13.5,2.5 C 22.8571,2.16836 32.1904,2.50169 41.5,3.5C 36.8333,3.83333 32.1667,4.16667 27.5,4.5C 22.4492,4.49327 17.7825,3.8266 13.5,2.5 Z M 13.5,7.5 C 22.8571,7.16836 32.1904,7.50169 41.5,8.5C 37.3856,8.02212 33.3856,8.85545 29.5,11C 27.3069,13.0253 26.3069,15.5253 26.5,18.5C 22.1667,18.5 17.8333,18.5 13.5,18.5C 13.5,14.8333 13.5,11.1667 13.5,7.5 Z M 42.5,16.5 C 38.957,16.5401 35.2903,16.2068 31.5,15.5C 32.2858,13.2649 33.9524,12.2649 36.5,12.5C 39.6225,12.38 41.6225,13.7133 42.5,16.5 Z M 30.5,16.5 C 31.6414,18.4513 31.6414,20.4513 30.5,22.5C 29.1667,20.5 29.1667,18.5 30.5,16.5 Z M 42.5,16.5 C 43.8333,18.5 43.8333,20.5 42.5,22.5C 41.1667,20.5 41.1667,18.5 42.5,16.5 Z M 35.5,19.5 C 36.0768,18.2267 36.7435,18.2267 37.5,19.5C 37.0302,20.463 36.3635,20.463 35.5,19.5 Z M 42.5,22.5 C 40.644,26.1678 37.644,27.3345 33.5,26C 32.2899,24.9609 31.2899,23.7942 30.5,22.5C 34.3358,22.1255 38.3358,22.1255 42.5,22.5 Z M 43.5,31.5 C 45.0847,32.0024 45.5847,33.0024 45,34.5C 43.9614,33.7562 43.4614,32.7562 43.5,31.5 Z"/></g>
<g><path style="opacity:0.787" fill="#000619" d="M 15.5,9.5 C 18.1873,9.33591 20.854,9.50258 23.5,10C 26.3535,14.1353 25.1868,16.6353 20,17.5C 14.7252,16.9651 13.2252,14.2984 15.5,9.5 Z"/></g>
<g><path style="opacity:0.699" fill="#000519" d="M 31.5,15.5 C 35.2903,16.2068 38.957,16.5401 42.5,16.5C 41.1667,18.5 41.1667,20.5 42.5,22.5C 38.3358,22.1255 34.3358,22.1255 30.5,22.5C 31.6414,20.4513 31.6414,18.4513 30.5,16.5C 31.1667,16.5 31.5,16.1667 31.5,15.5 Z M 35.5,19.5 C 36.3635,20.463 37.0302,20.463 37.5,19.5C 36.7435,18.2267 36.0768,18.2267 35.5,19.5 Z"/></g>
</svg>
