<?xml version="1.0" encoding="UTF-8"?>
<!DOCTYPE svg PUBLIC "-//W3C//DTD SVG 1.1//EN" "http://www.w3.org/Graphics/SVG/1.1/DTD/svg11.dtd">
<svg xmlns="http://www.w3.org/2000/svg" version="1.1" width="29px" height="20px" style="shape-rendering:geometricPrecision; text-rendering:geometricPrecision; image-rendering:optimizeQuality; fill-rule:evenodd; clip-rule:evenodd" xmlns:xlink="http://www.w3.org/1999/xlink">
<g><path style="opacity:0.897" fill="#495e57" d="M 11.5,-0.5 C 13.1667,-0.5 14.8333,-0.5 16.5,-0.5C 16.5394,0.583168 16.8728,1.58317 17.5,2.5C 23.319,4.97026 26.319,9.30359 26.5,15.5C 17.8078,15.8314 9.14112,15.498 0.5,14.5C 1.67206,9.32881 4.67206,5.66214 9.5,3.5C 10.3624,2.23415 11.0291,0.900818 11.5,-0.5 Z M 11.5,6.5 C 15.6879,6.09382 19.0212,7.59382 21.5,11C 16.467,11.8289 11.467,11.6623 6.5,10.5C 8.0147,8.91783 9.68137,7.5845 11.5,6.5 Z"/></g>
<g><path style="opacity:0.979" fill="#495d57" d="M -0.5,16.5 C 9.16667,16.5 18.8333,16.5 28.5,16.5C 28.5,17.5 28.5,18.5 28.5,19.5C 18.8333,19.5 9.16667,19.5 -0.5,19.5C -0.5,18.5 -0.5,17.5 -0.5,16.5 Z"/></g>
</svg>
