<?xml version="1.0" encoding="UTF-8"?>
<!DOCTYPE svg PUBLIC "-//W3C//DTD SVG 1.1//EN" "http://www.w3.org/Graphics/SVG/1.1/DTD/svg11.dtd">
<svg xmlns="http://www.w3.org/2000/svg" version="1.1" width="28px" height="22px" style="shape-rendering:geometricPrecision; text-rendering:geometricPrecision; image-rendering:optimizeQuality; fill-rule:evenodd; clip-rule:evenodd" xmlns:xlink="http://www.w3.org/1999/xlink">
<g><path style="opacity:0.927" fill="#485d56" d="M 11.5,-0.5 C 12.8333,-0.5 14.1667,-0.5 15.5,-0.5C 17.0433,1.55672 18.0433,1.55672 18.5,-0.5C 20.1667,-0.5 21.8333,-0.5 23.5,-0.5C 22.5755,3.88425 23.9088,7.21759 27.5,9.5C 27.5,10.1667 27.5,10.8333 27.5,11.5C 26.2921,12.2341 24.9587,12.5674 23.5,12.5C 23.7359,15.6085 23.4025,18.6085 22.5,21.5C 20.5,21.5 18.5,21.5 16.5,21.5C 15.6586,19.6208 15.3253,17.6208 15.5,15.5C 14.5,15.5 13.5,15.5 12.5,15.5C 12.6747,17.6208 12.3414,19.6208 11.5,21.5C 9.5,21.5 7.5,21.5 5.5,21.5C 4.74846,18.2527 4.24846,14.9194 4,11.5C 2.18396,12.7432 0.683957,12.4099 -0.5,10.5C -0.5,10.1667 -0.5,9.83333 -0.5,9.5C 3.81697,6.51364 7.81697,3.1803 11.5,-0.5 Z"/></g>
</svg>
