<?xml version="1.0" encoding="UTF-8"?>
<!DOCTYPE svg PUBLIC "-//W3C//DTD SVG 1.1//EN" "http://www.w3.org/Graphics/SVG/1.1/DTD/svg11.dtd">
<svg xmlns="http://www.w3.org/2000/svg" version="1.1" width="261px" height="209px" style="shape-rendering:geometricPrecision; text-rendering:geometricPrecision; image-rendering:optimizeQuality; fill-rule:evenodd; clip-rule:evenodd" xmlns:xlink="http://www.w3.org/1999/xlink">
<g><path style="opacity:1" fill="#281609" d="M -0.5,-0.5 C 12.5,-0.5 25.5,-0.5 38.5,-0.5C 39.667,8.83594 39.667,18.1693 38.5,27.5C 40.0479,34.0736 40.7145,40.7403 40.5,47.5C 42.5,47.5 44.5,47.5 46.5,47.5C 46.8333,52.8333 47.1667,58.1667 47.5,63.5C 45.1667,63.5 42.8333,63.5 40.5,63.5C 40.6643,70.2022 40.331,76.8689 39.5,83.5C 42.1667,83.5 44.8333,83.5 47.5,83.5C 47.3433,82.1266 47.51,80.7932 48,79.5C 49.6198,83.0819 51.9531,86.0819 55,88.5C 56.0674,87.8095 57.2341,87.3095 58.5,87C 57.3022,84.5676 58.1356,83.0676 61,82.5C 63.9122,82.358 65.4122,83.6913 65.5,86.5C 65.1667,86.5 64.8333,86.5 64.5,86.5C 63.1667,86.5 61.8333,86.5 60.5,86.5C 60.5,89.8333 60.5,93.1667 60.5,96.5C 61.5281,99.2769 61.1947,101.61 59.5,103.5C 39.7334,105.469 19.7334,106.136 -0.5,105.5C -0.5,70.1667 -0.5,34.8333 -0.5,-0.5 Z"/></g>
<g><path style="opacity:1" fill="#2f190d" d="M 38.5,-0.5 C 49.1667,-0.5 59.8333,-0.5 70.5,-0.5C 71.3216,7.73632 72.8216,15.7363 75,23.5C 80.3476,30.7745 85.8476,38.4411 91.5,46.5C 88.5193,47.3976 85.8526,49.3976 83.5,52.5C 84.706,54.1491 86.0394,55.6491 87.5,57C 85.5594,57.7429 83.7261,57.5762 82,56.5C 81.3828,57.4491 81.5494,58.2825 82.5,59C 80.1009,59.711 77.7676,59.5443 75.5,58.5C 74.5,59 73.5,59.5 72.5,60C 78.7513,60.6 79.0847,62.1 73.5,64.5C 72.1964,65.9869 71.0298,67.6536 70,69.5C 69.3176,74.3703 68.1509,79.037 66.5,83.5C 66.8627,84.1835 67.1961,84.8501 67.5,85.5C 67.1583,86.3382 66.4916,86.6716 65.5,86.5C 65.4122,83.6913 63.9122,82.358 61,82.5C 58.1356,83.0676 57.3022,84.5676 58.5,87C 57.2341,87.3095 56.0674,87.8095 55,88.5C 51.9531,86.0819 49.6198,83.0819 48,79.5C 47.51,80.7932 47.3433,82.1266 47.5,83.5C 44.8333,83.5 42.1667,83.5 39.5,83.5C 40.331,76.8689 40.6643,70.2022 40.5,63.5C 42.8333,63.5 45.1667,63.5 47.5,63.5C 47.1667,58.1667 46.8333,52.8333 46.5,47.5C 44.5,47.5 42.5,47.5 40.5,47.5C 40.7145,40.7403 40.0479,34.0736 38.5,27.5C 39.667,18.1693 39.667,8.83594 38.5,-0.5 Z"/></g>
<g><path style="opacity:1" fill="#351f11" d="M 70.5,-0.5 C 94.8333,-0.5 119.167,-0.5 143.5,-0.5C 142.064,0.428572 140.731,1.59524 139.5,3C 135.514,3.49885 131.514,3.66551 127.5,3.5C 125.28,7.0467 124.28,11.0467 124.5,15.5C 123.022,15.238 121.689,15.5713 120.5,16.5C 122.398,21.8955 124.731,26.8955 127.5,31.5C 128.5,31.5 129.5,31.5 130.5,31.5C 130.5,36.8333 130.5,42.1667 130.5,47.5C 127.482,47.3354 124.482,47.502 121.5,48C 123.891,48.2868 126.224,48.7868 128.5,49.5C 130.957,47.7751 133.623,47.2751 136.5,48C 134.087,50.6383 131.087,51.8049 127.5,51.5C 125.5,51.5 123.5,51.5 121.5,51.5C 118.167,51.5 114.833,51.5 111.5,51.5C 110.5,51.5 109.5,51.5 108.5,51.5C 107.532,53.6074 107.198,55.9407 107.5,58.5C 102.828,57.9973 98.1609,57.8306 93.5,58C 89.5597,59.5921 85.5597,61.0921 81.5,62.5C 81.2942,60.4508 80.4609,60.1175 79,61.5C 79.0187,63.1075 79.1854,64.7741 79.5,66.5C 78.6522,67.625 77.6522,67.625 76.5,66.5C 76.0269,65.0937 75.0269,64.427 73.5,64.5C 79.0847,62.1 78.7513,60.6 72.5,60C 73.5,59.5 74.5,59 75.5,58.5C 77.7676,59.5443 80.1009,59.711 82.5,59C 81.5494,58.2825 81.3828,57.4491 82,56.5C 83.7261,57.5762 85.5594,57.7429 87.5,57C 86.0394,55.6491 84.706,54.1491 83.5,52.5C 85.8526,49.3976 88.5193,47.3976 91.5,46.5C 85.8476,38.4411 80.3476,30.7745 75,23.5C 72.8216,15.7363 71.3216,7.73632 70.5,-0.5 Z"/></g>
<g><path style="opacity:1" fill="#3c2213" d="M 143.5,-0.5 C 146.167,-0.5 148.833,-0.5 151.5,-0.5C 154.279,2.08354 157.612,3.58354 161.5,4C 165.128,7.1427 169.462,8.30936 174.5,7.5C 173.833,12.8333 173.167,18.1667 172.5,23.5C 171.167,23.5 169.833,23.5 168.5,23.5C 168.5,28.8333 168.5,34.1667 168.5,39.5C 170.833,39.5 173.167,39.5 175.5,39.5C 174.959,45.0522 174.292,50.5522 173.5,56C 175.321,57.7433 177.321,59.2433 179.5,60.5C 180.167,61.8333 180.833,63.1667 181.5,64.5C 180.675,65.3857 179.675,65.719 178.5,65.5C 178.285,67.1788 178.952,68.1788 180.5,68.5C 178.505,70.3043 176.838,72.3043 175.5,74.5C 172.239,75.3778 168.906,76.0445 165.5,76.5C 165.011,75.0048 164.345,73.6715 163.5,72.5C 163.662,70.4727 163.495,68.4727 163,66.5C 162.617,65.944 162.117,65.6107 161.5,65.5C 161.167,64.5 160.5,63.8333 159.5,63.5C 160.244,60.0504 158.91,58.3838 155.5,58.5C 155.917,55.9208 155.25,53.7542 153.5,52C 147.058,52.9753 140.725,53.4753 134.5,53.5C 131.612,54.0102 129.279,53.3435 127.5,51.5C 131.087,51.8049 134.087,50.6383 136.5,48C 133.623,47.2751 130.957,47.7751 128.5,49.5C 126.224,48.7868 123.891,48.2868 121.5,48C 124.482,47.502 127.482,47.3354 130.5,47.5C 130.5,42.1667 130.5,36.8333 130.5,31.5C 129.5,31.5 128.5,31.5 127.5,31.5C 124.731,26.8955 122.398,21.8955 120.5,16.5C 121.689,15.5713 123.022,15.238 124.5,15.5C 124.28,11.0467 125.28,7.0467 127.5,3.5C 131.514,3.66551 135.514,3.49885 139.5,3C 140.731,1.59524 142.064,0.428572 143.5,-0.5 Z"/></g>
<g><path style="opacity:1" fill="#402617" d="M 151.5,-0.5 C 187.833,-0.5 224.167,-0.5 260.5,-0.5C 260.5,19.8333 260.5,40.1667 260.5,60.5C 253.544,61.4506 248.544,65.1172 245.5,71.5C 244.833,71.5 244.5,71.8333 244.5,72.5C 239.992,69.7467 235.659,66.7467 231.5,63.5C 231.167,63.5 230.833,63.5 230.5,63.5C 229.91,61.9028 228.91,60.5695 227.5,59.5C 223.698,58.7554 220.031,57.5887 216.5,56C 211.66,55.5737 206.827,55.7404 202,56.5C 198.281,56.5188 194.781,55.8522 191.5,54.5C 190.633,57.2267 188.799,59.2267 186,60.5C 184.666,61.8779 184.499,63.2113 185.5,64.5C 184.449,65.2223 183.782,66.2223 183.5,67.5C 182.391,67.5569 181.391,67.8902 180.5,68.5C 178.952,68.1788 178.285,67.1788 178.5,65.5C 179.675,65.719 180.675,65.3857 181.5,64.5C 180.833,63.1667 180.167,61.8333 179.5,60.5C 177.321,59.2433 175.321,57.7433 173.5,56C 174.292,50.5522 174.959,45.0522 175.5,39.5C 173.167,39.5 170.833,39.5 168.5,39.5C 168.5,34.1667 168.5,28.8333 168.5,23.5C 169.833,23.5 171.167,23.5 172.5,23.5C 173.167,18.1667 173.833,12.8333 174.5,7.5C 169.462,8.30936 165.128,7.1427 161.5,4C 157.612,3.58354 154.279,2.08354 151.5,-0.5 Z"/></g>
<g><path style="opacity:1" fill="#e1ca57" d="M 111.5,51.5 C 114.833,51.5 118.167,51.5 121.5,51.5C 122.568,52.4345 123.901,52.7678 125.5,52.5C 125.065,55.6127 126.065,56.2793 128.5,54.5C 135.033,56.375 134.7,57.375 127.5,57.5C 124.167,57.5 120.833,57.5 117.5,57.5C 117.649,56.448 117.483,55.448 117,54.5C 114.674,54.12 112.841,53.12 111.5,51.5 Z"/></g>
<g><path style="opacity:1" fill="#4e2f15" d="M 230.5,63.5 C 223.612,59.4872 216.112,57.8205 208,58.5C 204.5,58.6667 201,58.8333 197.5,59C 194.981,59.5864 192.981,60.7531 191.5,62.5C 190.791,63.404 189.791,63.7373 188.5,63.5C 187.391,63.5569 186.391,63.8902 185.5,64.5C 184.499,63.2113 184.666,61.8779 186,60.5C 188.799,59.2267 190.633,57.2267 191.5,54.5C 194.781,55.8522 198.281,56.5188 202,56.5C 206.827,55.7404 211.66,55.5737 216.5,56C 220.031,57.5887 223.698,58.7554 227.5,59.5C 228.91,60.5695 229.91,61.9028 230.5,63.5 Z"/></g>
<g><path style="opacity:1" fill="#f1dcb1" d="M 108.5,51.5 C 109.5,51.5 110.5,51.5 111.5,51.5C 112.841,53.12 114.674,54.12 117,54.5C 117.483,55.448 117.649,56.448 117.5,57.5C 117.5,57.8333 117.5,58.1667 117.5,58.5C 118.091,59.1515 118.757,59.8182 119.5,60.5C 119.043,61.2975 118.376,61.6309 117.5,61.5C 115.265,61.7947 113.265,61.4614 111.5,60.5C 109.633,57.8865 108.633,54.8865 108.5,51.5 Z"/></g>
<g><path style="opacity:1" fill="#d7c394" d="M 159.5,63.5 C 158.833,63.5 158.167,63.5 157.5,63.5C 156.022,63.762 154.689,63.4287 153.5,62.5C 154.025,61.8076 154.692,61.3076 155.5,61C 154.027,60.2904 153.36,59.1238 153.5,57.5C 150.167,57.5 146.833,57.5 143.5,57.5C 139.591,57.8635 136.591,56.5302 134.5,53.5C 140.725,53.4753 147.058,52.9753 153.5,52C 155.25,53.7542 155.917,55.9208 155.5,58.5C 158.91,58.3838 160.244,60.0504 159.5,63.5 Z"/></g>
<g><path style="opacity:1" fill="#cdb358" d="M 121.5,51.5 C 123.5,51.5 125.5,51.5 127.5,51.5C 129.279,53.3435 131.612,54.0102 134.5,53.5C 136.591,56.5302 139.591,57.8635 143.5,57.5C 145.317,59.0122 146.317,61.0122 146.5,63.5C 144.159,63.0081 142.159,61.8415 140.5,60C 137.961,59.2042 135.628,59.3709 133.5,60.5C 130.607,60.9689 128.607,59.9689 127.5,57.5C 134.7,57.375 135.033,56.375 128.5,54.5C 126.065,56.2793 125.065,55.6127 125.5,52.5C 123.901,52.7678 122.568,52.4345 121.5,51.5 Z"/></g>
<g><path style="opacity:1" fill="#d8c296" d="M 108.5,51.5 C 108.633,54.8865 109.633,57.8865 111.5,60.5C 107.298,60.1832 103.298,60.5166 99.5,61.5C 96.0568,62.1551 95.3901,63.4885 97.5,65.5C 95.8955,67.1789 95.2289,69.1789 95.5,71.5C 93.8333,71.5 92.1667,71.5 90.5,71.5C 88.4656,70.3631 87.299,68.6965 87,66.5C 87.414,66.0426 87.914,65.7093 88.5,65.5C 89.8415,67.0049 91.5082,67.6715 93.5,67.5C 93.5,66.1667 93.5,64.8333 93.5,63.5C 89.8333,63.5 86.1667,63.5 82.5,63.5C 82.5,64.5 82.5,65.5 82.5,66.5C 80.4805,65.4617 80.1472,64.1284 81.5,62.5C 85.5597,61.0921 89.5597,59.5921 93.5,58C 98.1609,57.8306 102.828,57.9973 107.5,58.5C 107.198,55.9407 107.532,53.6074 108.5,51.5 Z"/></g>
<g><path style="opacity:1" fill="#ceb26c" d="M 99.5,61.5 C 104.519,61.7522 109.519,62.2522 114.5,63C 113.5,63.3333 112.5,63.6667 111.5,64C 113.976,65.3088 115.976,67.1421 117.5,69.5C 117,69.8333 116.5,70.1667 116,70.5C 111.22,67.3771 106.053,66.3771 100.5,67.5C 101.602,68.1757 102.602,68.8423 103.5,69.5C 101.571,69.2308 99.9047,69.7308 98.5,71C 100.645,71.7431 100.811,72.5765 99,73.5C 97.5405,73.1918 96.3739,72.5251 95.5,71.5C 95.2289,69.1789 95.8955,67.1789 97.5,65.5C 95.3901,63.4885 96.0568,62.1551 99.5,61.5 Z"/></g>
<g><path style="opacity:1" fill="#9a7a38" d="M 188.5,63.5 C 187.415,65.5869 185.749,66.9202 183.5,67.5C 183.782,66.2223 184.449,65.2223 185.5,64.5C 186.391,63.8902 187.391,63.5569 188.5,63.5 Z"/></g>
<g><path style="opacity:1" fill="#9e7421" d="M 230.5,63.5 C 230.833,63.5 231.167,63.5 231.5,63.5C 233.833,66.1667 236.167,68.8333 238.5,71.5C 236.821,71.1077 235.154,70.6077 233.5,70C 230.28,67.5633 226.947,65.3967 223.5,63.5C 223.082,62.7784 222.416,62.2784 221.5,62C 215.453,61.4905 209.453,60.6572 203.5,59.5C 201.667,59.5854 200.334,60.2521 199.5,61.5C 196.833,61.8333 194.167,62.1667 191.5,62.5C 192.981,60.7531 194.981,59.5864 197.5,59C 201,58.8333 204.5,58.6667 208,58.5C 216.112,57.8205 223.612,59.4872 230.5,63.5 Z"/></g>
<g><path style="opacity:1" fill="#96793b" d="M 260.5,60.5 C 260.5,61.1667 260.5,61.8333 260.5,62.5C 258.146,62.838 255.813,63.338 253.5,64C 250.964,66.705 248.297,69.205 245.5,71.5C 248.544,65.1172 253.544,61.4506 260.5,60.5 Z"/></g>
<g><path style="opacity:1" fill="#dbc282" d="M 143.5,57.5 C 146.833,57.5 150.167,57.5 153.5,57.5C 153.36,59.1238 154.027,60.2904 155.5,61C 154.692,61.3076 154.025,61.8076 153.5,62.5C 154.689,63.4287 156.022,63.762 157.5,63.5C 157.5,65.1667 157.5,66.8333 157.5,68.5C 154.167,68.5 152.5,66.8333 152.5,63.5C 151.022,63.238 149.689,63.5713 148.5,64.5C 149.393,67.0841 149.726,69.7508 149.5,72.5C 145.676,72.2651 143.676,70.2651 143.5,66.5C 141.5,66.5 139.5,66.5 137.5,66.5C 137.343,63.6824 136.009,61.6824 133.5,60.5C 135.628,59.3709 137.961,59.2042 140.5,60C 142.159,61.8415 144.159,63.0081 146.5,63.5C 146.317,61.0122 145.317,59.0122 143.5,57.5 Z"/></g>
<g><path style="opacity:1" fill="#c99f23" d="M 223.5,63.5 C 223.835,68.3559 221.502,70.5226 216.5,70C 214.306,72.6947 212.306,75.528 210.5,78.5C 208.234,79.3142 205.9,79.8142 203.5,80C 202.748,80.6708 202.414,81.5041 202.5,82.5C 196.245,90.338 195.912,98.5047 201.5,107C 199.012,108.685 199.345,110.019 202.5,111C 202.204,114.309 201.704,117.809 201,121.5C 198.685,123.499 196.185,123.499 193.5,121.5C 194.209,120.596 195.209,120.263 196.5,120.5C 195.99,116.116 195.157,111.782 194,107.5C 193.172,102.798 193.338,98.1313 194.5,93.5C 195.086,93.2907 195.586,92.9574 196,92.5C 196.333,89.5 196.667,86.5 197,83.5C 197.637,81.6969 198.803,80.3636 200.5,79.5C 201.38,76.8886 202.046,74.222 202.5,71.5C 204.409,69.743 205.742,67.5763 206.5,65C 206.095,64.0546 205.428,63.3879 204.5,63C 204.833,62.6667 205.167,62.3333 205.5,62C 203.527,61.5045 201.527,61.3379 199.5,61.5C 200.334,60.2521 201.667,59.5854 203.5,59.5C 209.453,60.6572 215.453,61.4905 221.5,62C 222.416,62.2784 223.082,62.7784 223.5,63.5 Z"/></g>
<g><path style="opacity:1" fill="#efd595" d="M 117.5,58.5 C 119.604,58.2011 121.604,58.5344 123.5,59.5C 122.314,63.0047 123.647,65.0047 127.5,65.5C 127.64,67.1238 126.973,68.2904 125.5,69C 128.914,69.2969 132.247,69.9635 135.5,71C 136.91,71.3678 137.91,72.2011 138.5,73.5C 137.221,75.1461 135.555,76.3128 133.5,77C 132.748,77.6708 132.414,78.5041 132.5,79.5C 131.835,81.3691 131.169,83.3691 130.5,85.5C 128.253,86.3742 125.92,86.7076 123.5,86.5C 123.67,85.1779 123.337,84.0113 122.5,83C 123.737,82.7679 124.737,82.2679 125.5,81.5C 126.833,81.5 127.5,80.8333 127.5,79.5C 127.196,78.8501 126.863,78.1835 126.5,77.5C 123.97,76.8681 121.637,75.8681 119.5,74.5C 120.5,72.8333 121.5,71.1667 122.5,69.5C 121.57,67.8953 121.57,66.3953 122.5,65C 120.027,64.7805 118.36,63.6138 117.5,61.5C 118.376,61.6309 119.043,61.2975 119.5,60.5C 118.757,59.8182 118.091,59.1515 117.5,58.5 Z"/></g>
<g><path style="opacity:1" fill="#69410b" d="M 231.5,63.5 C 235.659,66.7467 239.992,69.7467 244.5,72.5C 244.5,72.8333 244.5,73.1667 244.5,73.5C 242.297,73.3964 240.297,72.7298 238.5,71.5C 236.167,68.8333 233.833,66.1667 231.5,63.5 Z"/></g>
<g><path style="opacity:1" fill="#b37f1d" d="M 223.5,63.5 C 226.947,65.3967 230.28,67.5633 233.5,70C 235.154,70.6077 236.821,71.1077 238.5,71.5C 240.297,72.7298 242.297,73.3964 244.5,73.5C 244.167,74.5 243.5,75.1667 242.5,75.5C 239.672,76.4612 237.005,76.2946 234.5,75C 228.205,73.4806 223.871,75.6473 221.5,81.5C 218.981,81.8477 217.147,83.1811 216,85.5C 214.891,88.9173 214.058,92.4173 213.5,96C 207.206,110.199 202.206,109.699 198.5,94.5C 200.037,90.5559 201.37,86.5559 202.5,82.5C 202.414,81.5041 202.748,80.6708 203.5,80C 205.9,79.8142 208.234,79.3142 210.5,78.5C 212.306,75.528 214.306,72.6947 216.5,70C 221.502,70.5226 223.835,68.3559 223.5,63.5 Z"/></g>
<g><path style="opacity:1" fill="#f3decd" d="M 81.5,62.5 C 80.1472,64.1284 80.4805,65.4617 82.5,66.5C 83.7752,68.7975 85.1085,71.1308 86.5,73.5C 86.1909,76.4917 84.5242,77.825 81.5,77.5C 81.8064,74.6146 81.4731,71.9479 80.5,69.5C 80.7373,68.209 80.404,67.209 79.5,66.5C 79.1854,64.7741 79.0187,63.1075 79,61.5C 80.4609,60.1175 81.2942,60.4508 81.5,62.5 Z"/></g>
<g><path style="opacity:1" fill="#ceb379" d="M 99.5,61.5 C 103.298,60.5166 107.298,60.1832 111.5,60.5C 113.265,61.4614 115.265,61.7947 117.5,61.5C 118.36,63.6138 120.027,64.7805 122.5,65C 121.57,66.3953 121.57,67.8953 122.5,69.5C 121.5,71.1667 120.5,72.8333 119.5,74.5C 121.637,75.8681 123.97,76.8681 126.5,77.5C 126.863,78.1835 127.196,78.8501 127.5,79.5C 121.07,77.4138 115.07,74.4138 109.5,70.5C 107.547,69.8444 105.547,69.5111 103.5,69.5C 102.602,68.8423 101.602,68.1757 100.5,67.5C 106.053,66.3771 111.22,67.3771 116,70.5C 116.5,70.1667 117,69.8333 117.5,69.5C 115.976,67.1421 113.976,65.3088 111.5,64C 112.5,63.6667 113.5,63.3333 114.5,63C 109.519,62.2522 104.519,61.7522 99.5,61.5 Z"/></g>
<g><path style="opacity:1" fill="#ceb679" d="M 90.5,71.5 C 89.0674,73.5184 89.4008,75.1851 91.5,76.5C 91.7406,78.8984 91.0739,80.8984 89.5,82.5C 86.8221,84.4326 84.1554,83.9326 81.5,81C 79.8659,80.5065 78.1992,80.3398 76.5,80.5C 76.9528,79.5416 77.6195,78.7083 78.5,78C 77.9056,77.5357 77.2389,77.369 76.5,77.5C 76.5,77.1667 76.5,76.8333 76.5,76.5C 77.8333,76.5 79.1667,76.5 80.5,76.5C 80.5,74.1667 80.5,71.8333 80.5,69.5C 81.4731,71.9479 81.8064,74.6146 81.5,77.5C 84.5242,77.825 86.1909,76.4917 86.5,73.5C 85.1085,71.1308 83.7752,68.7975 82.5,66.5C 82.5,65.5 82.5,64.5 82.5,63.5C 86.1667,63.5 89.8333,63.5 93.5,63.5C 93.5,64.8333 93.5,66.1667 93.5,67.5C 91.5082,67.6715 89.8415,67.0049 88.5,65.5C 87.914,65.7093 87.414,66.0426 87,66.5C 87.299,68.6965 88.4656,70.3631 90.5,71.5 Z"/></g>
<g><path style="opacity:1" fill="#dec368" d="M 117.5,58.5 C 117.5,58.1667 117.5,57.8333 117.5,57.5C 120.833,57.5 124.167,57.5 127.5,57.5C 128.607,59.9689 130.607,60.9689 133.5,60.5C 136.009,61.6824 137.343,63.6824 137.5,66.5C 139.5,66.5 141.5,66.5 143.5,66.5C 143.676,70.2651 145.676,72.2651 149.5,72.5C 149.726,69.7508 149.393,67.0841 148.5,64.5C 149.689,63.5713 151.022,63.238 152.5,63.5C 152.5,66.8333 154.167,68.5 157.5,68.5C 157.5,66.8333 157.5,65.1667 157.5,63.5C 158.167,63.5 158.833,63.5 159.5,63.5C 160.5,63.8333 161.167,64.5 161.5,65.5C 160.554,68.3126 158.554,69.646 155.5,69.5C 152.588,69.7888 150.588,71.2888 149.5,74C 147.559,74.7429 145.726,74.5762 144,73.5C 143.51,74.7932 143.343,76.1266 143.5,77.5C 140.505,77.2938 137.838,77.9605 135.5,79.5C 134.5,79.5 133.5,79.5 132.5,79.5C 132.414,78.5041 132.748,77.6708 133.5,77C 135.555,76.3128 137.221,75.1461 138.5,73.5C 137.91,72.2011 136.91,71.3678 135.5,71C 132.247,69.9635 128.914,69.2969 125.5,69C 126.973,68.2904 127.64,67.1238 127.5,65.5C 123.647,65.0047 122.314,63.0047 123.5,59.5C 121.604,58.5344 119.604,58.2011 117.5,58.5 Z"/></g>
<g><path style="opacity:1" fill="#f0d688" d="M 196.5,79.5 C 194.833,79.5 193.167,79.5 191.5,79.5C 191.649,80.552 191.483,81.552 191,82.5C 190.092,80.5614 188.592,79.5614 186.5,79.5C 186.167,79.5 185.833,79.5 185.5,79.5C 181.323,75.9282 181.99,73.0949 187.5,71C 196.463,67.4841 199.463,70.3174 196.5,79.5 Z"/></g>
<g><path style="opacity:1" fill="#c4a345" d="M 77.5,68.5 C 78.391,69.1098 79.391,69.4431 80.5,69.5C 80.5,71.8333 80.5,74.1667 80.5,76.5C 79.1667,76.5 77.8333,76.5 76.5,76.5C 75.645,75.4693 74.9783,74.3026 74.5,73C 75.5549,71.4928 76.5549,69.9928 77.5,68.5 Z"/></g>
<g><path style="opacity:1" fill="#b09245" d="M 183.5,67.5 C 181.425,70.2422 179.091,72.5756 176.5,74.5C 176.167,74.5 175.833,74.5 175.5,74.5C 176.838,72.3043 178.505,70.3043 180.5,68.5C 181.391,67.8902 182.391,67.5569 183.5,67.5 Z"/></g>
<g><path style="opacity:1" fill="#cea44c" d="M 161.5,65.5 C 162.117,65.6107 162.617,65.944 163,66.5C 163.495,68.4727 163.662,70.4727 163.5,72.5C 162.17,74.8295 160.836,77.1628 159.5,79.5C 157.5,79.5 155.5,79.5 153.5,79.5C 153.5,78.1667 153.5,76.8333 153.5,75.5C 155.28,74.0101 155.946,72.0101 155.5,69.5C 158.554,69.646 160.554,68.3126 161.5,65.5 Z"/></g>
<g><path style="opacity:1" fill="#cbaa31" d="M 155.5,69.5 C 155.946,72.0101 155.28,74.0101 153.5,75.5C 150.401,75.0923 148.067,76.259 146.5,79C 142.848,79.4986 139.182,79.6653 135.5,79.5C 137.838,77.9605 140.505,77.2938 143.5,77.5C 143.343,76.1266 143.51,74.7932 144,73.5C 145.726,74.5762 147.559,74.7429 149.5,74C 150.588,71.2888 152.588,69.7888 155.5,69.5 Z"/></g>
<g><path style="opacity:1" fill="#dec251" d="M 260.5,62.5 C 260.5,66.5 260.5,70.5 260.5,74.5C 258.952,74.8212 258.285,75.8212 258.5,77.5C 255.393,77.3512 252.393,77.8512 249.5,79C 248.748,79.6708 248.414,80.5041 248.5,81.5C 248.167,81.5 247.833,81.5 247.5,81.5C 244.043,81.0399 242.377,79.0399 242.5,75.5C 243.5,75.1667 244.167,74.5 244.5,73.5C 244.5,73.1667 244.5,72.8333 244.5,72.5C 244.5,71.8333 244.833,71.5 245.5,71.5C 248.297,69.205 250.964,66.705 253.5,64C 255.813,63.338 258.146,62.838 260.5,62.5 Z"/></g>
<g><path style="opacity:1" fill="#dec261" d="M 77.5,68.5 C 76.5549,69.9928 75.5549,71.4928 74.5,73C 74.9783,74.3026 75.645,75.4693 76.5,76.5C 76.5,76.8333 76.5,77.1667 76.5,77.5C 76.1344,78.6946 75.301,79.3613 74,79.5C 71.6353,77.3494 70.9686,74.6828 72,71.5C 73.2635,69.393 75.0968,68.393 77.5,68.5 Z"/></g>
<g><path style="opacity:1" fill="#a57637" d="M 175.5,74.5 C 175.5,76.1667 175.5,77.8333 175.5,79.5C 174.167,79.5 172.833,79.5 171.5,79.5C 169.5,79.5 167.5,79.5 165.5,79.5C 165.5,78.5 165.5,77.5 165.5,76.5C 168.906,76.0445 172.239,75.3778 175.5,74.5 Z"/></g>
<g><path style="opacity:1" fill="#b79039" d="M 103.5,69.5 C 105.547,69.5111 107.547,69.8444 109.5,70.5C 115.07,74.4138 121.07,77.4138 127.5,79.5C 127.5,80.8333 126.833,81.5 125.5,81.5C 122.487,81.1072 119.82,81.7739 117.5,83.5C 117.917,78.9315 115.917,77.4315 111.5,79C 112.5,79.3333 113.5,79.6667 114.5,80C 114.167,80.3333 113.833,80.6667 113.5,81C 110.749,81.9428 108.083,82.7761 105.5,83.5C 103.886,81.9254 101.886,81.2587 99.5,81.5C 99.8333,78.5 98.5,77.1667 95.5,77.5C 94.4324,76.5655 93.099,76.2322 91.5,76.5C 89.4008,75.1851 89.0674,73.5184 90.5,71.5C 92.1667,71.5 93.8333,71.5 95.5,71.5C 96.3739,72.5251 97.5405,73.1918 99,73.5C 100.811,72.5765 100.645,71.7431 98.5,71C 99.9047,69.7308 101.571,69.2308 103.5,69.5 Z"/></g>
<g><path style="opacity:1" fill="#b18021" d="M 163.5,72.5 C 164.345,73.6715 165.011,75.0048 165.5,76.5C 165.5,77.5 165.5,78.5 165.5,79.5C 167.5,79.5 169.5,79.5 171.5,79.5C 170.432,80.4345 169.099,80.7678 167.5,80.5C 165.874,80.9383 164.207,81.2716 162.5,81.5C 160.97,81.3601 159.97,80.6935 159.5,79.5C 160.836,77.1628 162.17,74.8295 163.5,72.5 Z"/></g>
<g><path style="opacity:1" fill="#c29b28" d="M 260.5,74.5 C 260.5,78.5 260.5,82.5 260.5,86.5C 258.833,86.5 257.167,86.5 255.5,86.5C 255.944,80.2377 253.611,78.5711 248.5,81.5C 248.414,80.5041 248.748,79.6708 249.5,79C 252.393,77.8512 255.393,77.3512 258.5,77.5C 258.285,75.8212 258.952,74.8212 260.5,74.5 Z"/></g>
<g><path style="opacity:1" fill="#dfc881" d="M 76.5,66.5 C 77.6522,67.625 78.6522,67.625 79.5,66.5C 80.404,67.209 80.7373,68.209 80.5,69.5C 79.391,69.4431 78.391,69.1098 77.5,68.5C 75.0968,68.393 73.2635,69.393 72,71.5C 70.9686,74.6828 71.6353,77.3494 74,79.5C 75.301,79.3613 76.1344,78.6946 76.5,77.5C 77.2389,77.369 77.9056,77.5357 78.5,78C 77.6195,78.7083 76.9528,79.5416 76.5,80.5C 75.5489,81.9187 75.2155,83.5853 75.5,85.5C 73.8828,84.962 72.2161,84.6287 70.5,84.5C 70.5,85.5 70.5,86.5 70.5,87.5C 68.5,87.5 66.5,87.5 64.5,87.5C 64.5,87.1667 64.5,86.8333 64.5,86.5C 64.8333,86.5 65.1667,86.5 65.5,86.5C 66.4916,86.6716 67.1583,86.3382 67.5,85.5C 68.4584,85.0472 69.2917,84.3805 70,83.5C 70.3333,79.1667 70.6667,74.8333 71,70.5C 72.451,68.5359 74.2843,67.2026 76.5,66.5 Z"/></g>
<g><path style="opacity:1" fill="#d1a962" d="M 95.5,77.5 C 98.5,77.1667 99.8333,78.5 99.5,81.5C 101.886,81.2587 103.886,81.9254 105.5,83.5C 104.393,85.8466 102.726,86.18 100.5,84.5C 99.3303,82.7215 97.6636,81.7215 95.5,81.5C 95.5,80.1667 95.5,78.8333 95.5,77.5 Z"/></g>
<g><path style="opacity:1" fill="#dfcab3" d="M 73.5,64.5 C 75.0269,64.427 76.0269,65.0937 76.5,66.5C 74.2843,67.2026 72.451,68.5359 71,70.5C 70.6667,74.8333 70.3333,79.1667 70,83.5C 69.2917,84.3805 68.4584,85.0472 67.5,85.5C 67.1961,84.8501 66.8627,84.1835 66.5,83.5C 68.1509,79.037 69.3176,74.3703 70,69.5C 71.0298,67.6536 72.1964,65.9869 73.5,64.5 Z"/></g>
<g><path style="opacity:1" fill="#bb851d" d="M 151.5,83.5 C 151.167,84.5 150.5,85.1667 149.5,85.5C 143.837,86.3032 138.17,85.9698 132.5,84.5C 133.522,83.646 134.355,82.646 135,81.5C 138.957,81.2766 142.957,80.9433 147,80.5C 148.386,81.7286 149.886,82.7286 151.5,83.5 Z"/></g>
<g><path style="opacity:1" fill="#af792a" d="M 117.5,83.5 C 117.5,84.5 117.5,85.5 117.5,86.5C 111.833,86.5 106.167,86.5 100.5,86.5C 100.5,85.8333 100.5,85.1667 100.5,84.5C 102.726,86.18 104.393,85.8466 105.5,83.5C 108.083,82.7761 110.749,81.9428 113.5,81C 113.833,80.6667 114.167,80.3333 114.5,80C 113.5,79.6667 112.5,79.3333 111.5,79C 115.917,77.4315 117.917,78.9315 117.5,83.5 Z"/></g>
<g><path style="opacity:1" fill="#9c6417" d="M 91.5,76.5 C 93.099,76.2322 94.4324,76.5655 95.5,77.5C 95.5,78.8333 95.5,80.1667 95.5,81.5C 97.6636,81.7215 99.3303,82.7215 100.5,84.5C 100.5,85.1667 100.5,85.8333 100.5,86.5C 96.8333,86.5 93.1667,86.5 89.5,86.5C 89.5,85.1667 89.5,83.8333 89.5,82.5C 91.0739,80.8984 91.7406,78.8984 91.5,76.5 Z"/></g>
<g><path style="opacity:1" fill="#e7c85d" d="M 186.5,79.5 C 188.592,79.5614 190.092,80.5614 191,82.5C 191.483,81.552 191.649,80.552 191.5,79.5C 193.167,79.5 194.833,79.5 196.5,79.5C 192.826,86.346 189.826,93.5127 187.5,101C 188.254,105.795 188.754,110.628 189,115.5C 190.892,116.617 191.725,118.284 191.5,120.5C 189.435,120.483 187.435,120.15 185.5,119.5C 185.5,116.833 185.5,114.167 185.5,111.5C 185.5,109.167 185.5,106.833 185.5,104.5C 185.5,103.833 185.5,103.167 185.5,102.5C 185.5,100.167 185.5,97.8333 185.5,95.5C 185.5,93.5 185.5,91.5 185.5,89.5C 186.414,86.272 186.747,82.9387 186.5,79.5 Z"/></g>
<g><path style="opacity:1" fill="#ca9c30" d="M 153.5,75.5 C 153.5,76.8333 153.5,78.1667 153.5,79.5C 155.5,79.5 157.5,79.5 159.5,79.5C 159.97,80.6935 160.97,81.3601 162.5,81.5C 164.207,81.2716 165.874,80.9383 167.5,80.5C 167.389,81.1174 167.056,81.6174 166.5,82C 161.536,82.9122 156.536,83.4122 151.5,83.5C 149.886,82.7286 148.386,81.7286 147,80.5C 142.957,80.9433 138.957,81.2766 135,81.5C 134.355,82.646 133.522,83.646 132.5,84.5C 138.17,85.9698 143.837,86.3032 149.5,85.5C 148.817,87.1765 147.483,87.8432 145.5,87.5C 145.771,89.3797 145.104,90.713 143.5,91.5C 142.839,90.2825 142.172,88.9492 141.5,87.5C 140.554,87.0133 139.554,86.6799 138.5,86.5C 136.777,87.5522 135.11,87.5522 133.5,86.5C 131.866,86.968 130.7,87.968 130,89.5C 126.017,87.7844 121.85,86.7844 117.5,86.5C 117.5,85.5 117.5,84.5 117.5,83.5C 119.82,81.7739 122.487,81.1072 125.5,81.5C 124.737,82.2679 123.737,82.7679 122.5,83C 123.337,84.0113 123.67,85.1779 123.5,86.5C 125.92,86.7076 128.253,86.3742 130.5,85.5C 131.169,83.3691 131.835,81.3691 132.5,79.5C 133.5,79.5 134.5,79.5 135.5,79.5C 139.182,79.6653 142.848,79.4986 146.5,79C 148.067,76.259 150.401,75.0923 153.5,75.5 Z"/></g>
<g><path style="opacity:1" fill="#cfac3f" d="M 175.5,74.5 C 175.833,74.5 176.167,74.5 176.5,74.5C 176.414,75.4959 176.748,76.3292 177.5,77C 180.292,77.5423 182.958,78.3756 185.5,79.5C 185.833,79.5 186.167,79.5 186.5,79.5C 186.747,82.9387 186.414,86.272 185.5,89.5C 182.236,88.6758 178.902,88.3424 175.5,88.5C 171.154,88.3343 166.821,88.501 162.5,89C 156.327,91.0012 149.993,92.1678 143.5,92.5C 143.5,92.1667 143.5,91.8333 143.5,91.5C 145.104,90.713 145.771,89.3797 145.5,87.5C 147.483,87.8432 148.817,87.1765 149.5,85.5C 150.5,85.1667 151.167,84.5 151.5,83.5C 156.536,83.4122 161.536,82.9122 166.5,82C 167.056,81.6174 167.389,81.1174 167.5,80.5C 169.099,80.7678 170.432,80.4345 171.5,79.5C 172.833,79.5 174.167,79.5 175.5,79.5C 175.5,77.8333 175.5,76.1667 175.5,74.5 Z"/></g>
<g><path style="opacity:1" fill="#deb831" d="M 75.5,85.5 C 81.1084,86.8752 86.7751,88.0418 92.5,89C 82.8391,89.4998 73.1724,89.6665 63.5,89.5C 63.5,90.8333 63.5,92.1667 63.5,93.5C 62.2584,91.6112 62.2584,89.6112 63.5,87.5C 63.8333,87.5 64.1667,87.5 64.5,87.5C 66.5,87.5 68.5,87.5 70.5,87.5C 70.5,86.5 70.5,85.5 70.5,84.5C 72.2161,84.6287 73.8828,84.962 75.5,85.5 Z"/></g>
<g><path style="opacity:1" fill="#c09224" d="M 76.5,80.5 C 78.1992,80.3398 79.8659,80.5065 81.5,81C 84.1554,83.9326 86.8221,84.4326 89.5,82.5C 89.5,83.8333 89.5,85.1667 89.5,86.5C 93.1667,86.5 96.8333,86.5 100.5,86.5C 106.167,86.5 111.833,86.5 117.5,86.5C 116.228,87.4343 114.728,88.101 113,88.5C 107.177,87.2305 101.344,87.2305 95.5,88.5C 104.409,90.2148 113.409,90.8815 122.5,90.5C 122.768,92.099 122.434,93.4324 121.5,94.5C 121.5,93.5 121.5,92.5 121.5,91.5C 109.833,91.5 98.1667,91.5 86.5,91.5C 81.7863,91.1734 77.1196,91.5067 72.5,92.5C 80.2751,94.2258 79.9418,95.3925 71.5,96C 72.8672,98.3015 73.5339,100.801 73.5,103.5C 71.5,103.5 69.5,103.5 67.5,103.5C 67.6567,102.127 67.49,100.793 67,99.5C 65.4179,97.7129 64.2512,95.7129 63.5,93.5C 63.5,92.1667 63.5,90.8333 63.5,89.5C 73.1724,89.6665 82.8391,89.4998 92.5,89C 86.7751,88.0418 81.1084,86.8752 75.5,85.5C 75.2155,83.5853 75.5489,81.9187 76.5,80.5 Z"/></g>
<g><path style="opacity:1" fill="#ceaf61" d="M 175.5,88.5 C 175.082,89.2216 174.416,89.7216 173.5,90C 163.24,90.6194 153.24,92.4527 143.5,95.5C 143.5,94.5 143.5,93.5 143.5,92.5C 149.993,92.1678 156.327,91.0012 162.5,89C 166.821,88.501 171.154,88.3343 175.5,88.5 Z"/></g>
<g><path style="opacity:1" fill="#8f7843" d="M 64.5,86.5 C 64.5,86.8333 64.5,87.1667 64.5,87.5C 64.1667,87.5 63.8333,87.5 63.5,87.5C 61.631,89.6353 60.9644,92.3019 61.5,95.5C 61.5,96.1667 61.1667,96.5 60.5,96.5C 60.5,93.1667 60.5,89.8333 60.5,86.5C 61.8333,86.5 63.1667,86.5 64.5,86.5 Z"/></g>
<g><path style="opacity:1" fill="#cda933" d="M 117.5,86.5 C 121.85,86.7844 126.017,87.7844 130,89.5C 130.7,87.968 131.866,86.968 133.5,86.5C 135.11,87.5522 136.777,87.5522 138.5,86.5C 139.554,86.6799 140.554,87.0133 141.5,87.5C 142.172,88.9492 142.839,90.2825 143.5,91.5C 143.5,91.8333 143.5,92.1667 143.5,92.5C 143.5,93.5 143.5,94.5 143.5,95.5C 137.491,95.3338 131.491,95.5005 125.5,96C 124.211,97.8022 122.544,98.9688 120.5,99.5C 120.366,97.7085 120.699,96.0418 121.5,94.5C 122.434,93.4324 122.768,92.099 122.5,90.5C 113.409,90.8815 104.409,90.2148 95.5,88.5C 101.344,87.2305 107.177,87.2305 113,88.5C 114.728,88.101 116.228,87.4343 117.5,86.5 Z"/></g>
<g><path style="opacity:1" fill="#a97b1b" d="M 86.5,91.5 C 98.1667,91.5 109.833,91.5 121.5,91.5C 121.5,92.5 121.5,93.5 121.5,94.5C 120.699,96.0418 120.366,97.7085 120.5,99.5C 119.791,100.404 118.791,100.737 117.5,100.5C 117.167,100.5 116.833,100.5 116.5,100.5C 116.022,97.7224 117.022,95.7224 119.5,94.5C 108.403,93.0497 97.4026,92.0497 86.5,91.5 Z"/></g>
<g><path style="opacity:1" fill="#9b6b20" d="M 86.5,91.5 C 97.4026,92.0497 108.403,93.0497 119.5,94.5C 117.022,95.7224 116.022,97.7224 116.5,100.5C 116.19,101.738 115.69,101.738 115,100.5C 114.374,104.136 113.207,104.136 111.5,100.5C 109.362,99.7569 107.196,99.0903 105,98.5C 104.055,98.9054 103.388,99.572 103,100.5C 101.663,97.9979 99.8292,95.9979 97.5,94.5C 94.9365,94.737 94.9365,95.237 97.5,96C 95.9026,98.6439 94.0693,98.4773 92,95.5C 91.1667,98 90,98.1667 88.5,96C 85.5184,95.502 82.5184,95.3354 79.5,95.5C 79.5,96.5 79.5,97.5 79.5,98.5C 78.6236,98.3691 77.9569,98.7025 77.5,99.5C 81.5988,102.296 81.4321,104.629 77,106.5C 75.9231,105.571 74.7564,104.904 73.5,104.5C 73.5,104.167 73.5,103.833 73.5,103.5C 73.5339,100.801 72.8672,98.3015 71.5,96C 79.9418,95.3925 80.2751,94.2258 72.5,92.5C 77.1196,91.5067 81.7863,91.1734 86.5,91.5 Z"/></g>
<g><path style="opacity:1" fill="#cdb27b" d="M 175.5,88.5 C 178.902,88.3424 182.236,88.6758 185.5,89.5C 185.5,91.5 185.5,93.5 185.5,95.5C 183.412,96.9395 181.079,97.6061 178.5,97.5C 165.876,99.5653 153.209,101.399 140.5,103C 135.771,104.073 131.438,105.573 127.5,107.5C 123.395,107.504 121.895,105.504 123,101.5C 129.246,97.2607 136.079,96.2607 143.5,98.5C 143.5,97.5 143.5,96.5 143.5,95.5C 153.24,92.4527 163.24,90.6194 173.5,90C 174.416,89.7216 175.082,89.2216 175.5,88.5 Z"/></g>
<g><path style="opacity:1" fill="#c39223" d="M 242.5,75.5 C 242.377,79.0399 244.043,81.0399 247.5,81.5C 247.5,83.8333 247.5,86.1667 247.5,88.5C 247.345,93.895 246.678,99.2283 245.5,104.5C 244.416,103.335 243.583,102.002 243,100.5C 242.667,97.1667 242.333,93.8333 242,90.5C 241.329,89.7476 240.496,89.4142 239.5,89.5C 239.665,86.4816 239.498,83.4816 239,80.5C 236.263,79.3895 233.429,79.2228 230.5,80C 223.431,86.5543 221.764,94.3877 225.5,103.5C 225.92,105.094 226.586,106.594 227.5,108C 227.046,109.622 226.046,110.788 224.5,111.5C 222.389,110.051 220.056,109.051 217.5,108.5C 216.722,106.2 215.722,104.034 214.5,102C 214.892,100.989 215.559,100.489 216.5,100.5C 214.071,92.9527 215.737,86.6194 221.5,81.5C 223.871,75.6473 228.205,73.4806 234.5,75C 237.005,76.2946 239.672,76.4612 242.5,75.5 Z"/></g>
<g><path style="opacity:1" fill="#945915" d="M 239.5,89.5 C 239.5,89.8333 239.5,90.1667 239.5,90.5C 239.892,93.1457 239.892,95.6457 239.5,98C 235.949,96.0269 231.949,95.1936 227.5,95.5C 227.649,96.552 227.483,97.552 227,98.5C 225.443,95.7055 225.11,92.7055 226,89.5C 228.179,87.6518 230.013,85.4852 231.5,83C 232.5,82.3333 233.5,82.3333 234.5,83C 235.24,84.7849 235.907,86.6183 236.5,88.5C 237.325,89.3857 238.325,89.719 239.5,89.5 Z"/></g>
<g><path style="opacity:1" fill="#9b6417" d="M 260.5,86.5 C 260.5,94.1667 260.5,101.833 260.5,109.5C 255.594,108.579 251.428,106.245 248,102.5C 248.597,97.6872 248.431,93.0205 247.5,88.5C 247.5,86.1667 247.5,83.8333 247.5,81.5C 247.833,81.5 248.167,81.5 248.5,81.5C 253.611,78.5711 255.944,80.2377 255.5,86.5C 257.167,86.5 258.833,86.5 260.5,86.5 Z"/></g>
<g><path style="opacity:1" fill="#c4a45a" d="M 143.5,95.5 C 143.5,96.5 143.5,97.5 143.5,98.5C 136.079,96.2607 129.246,97.2607 123,101.5C 121.895,105.504 123.395,107.504 127.5,107.5C 125.972,108.309 124.306,108.976 122.5,109.5C 121.811,108.226 120.977,108.226 120,109.5C 120.875,107.689 121.209,105.689 121,103.5C 120.667,103.833 120.333,104.167 120,104.5C 118.915,103.264 118.082,101.931 117.5,100.5C 118.791,100.737 119.791,100.404 120.5,99.5C 122.544,98.9688 124.211,97.8022 125.5,96C 131.491,95.5005 137.491,95.3338 143.5,95.5 Z"/></g>
<g><path style="opacity:1" fill="#bc8922" d="M 221.5,81.5 C 215.737,86.6194 214.071,92.9527 216.5,100.5C 215.559,100.489 214.892,100.989 214.5,102C 215.722,104.034 216.722,106.2 217.5,108.5C 220.056,109.051 222.389,110.051 224.5,111.5C 226.046,110.788 227.046,109.622 227.5,108C 226.586,106.594 225.92,105.094 225.5,103.5C 227.127,105.464 229.127,106.797 231.5,107.5C 231.822,109.722 231.155,111.556 229.5,113C 223.167,113.333 216.833,113.667 210.5,114C 208.281,116.22 205.781,118.053 203,119.5C 202.598,120.872 202.098,122.205 201.5,123.5C 201.624,124.107 201.957,124.44 202.5,124.5C 202.5,124.833 202.5,125.167 202.5,125.5C 202.5,125.833 202.5,126.167 202.5,126.5C 198.147,126.154 194.48,124.487 191.5,121.5C 192.167,121.5 192.833,121.5 193.5,121.5C 196.185,123.499 198.685,123.499 201,121.5C 201.704,117.809 202.204,114.309 202.5,111C 199.345,110.019 199.012,108.685 201.5,107C 195.912,98.5047 196.245,90.338 202.5,82.5C 201.37,86.5559 200.037,90.5559 198.5,94.5C 202.206,109.699 207.206,110.199 213.5,96C 214.058,92.4173 214.891,88.9173 216,85.5C 217.147,83.1811 218.981,81.8477 221.5,81.5 Z"/></g>
<g><path style="opacity:1" fill="#b8872a" d="M 247.5,88.5 C 248.431,93.0205 248.597,97.6872 248,102.5C 251.428,106.245 255.594,108.579 260.5,109.5C 260.5,110.167 260.5,110.833 260.5,111.5C 257.5,111.5 254.5,111.5 251.5,111.5C 247.083,108.353 244.083,109.353 242.5,114.5C 240.821,114.285 239.821,114.952 239.5,116.5C 236.379,117.288 234.712,119.288 234.5,122.5C 232.901,122.768 231.568,122.434 230.5,121.5C 230.5,120.167 230.5,118.833 230.5,117.5C 233.737,116.875 236.404,115.208 238.5,112.5C 237.42,109.668 236.42,106.835 235.5,104C 236.793,103.51 238.127,103.343 239.5,103.5C 239.678,100.678 240.345,98.0115 241.5,95.5C 241.564,93.4434 240.898,91.7767 239.5,90.5C 239.5,90.1667 239.5,89.8333 239.5,89.5C 240.496,89.4142 241.329,89.7476 242,90.5C 242.333,93.8333 242.667,97.1667 243,100.5C 243.583,102.002 244.416,103.335 245.5,104.5C 246.678,99.2283 247.345,93.895 247.5,88.5 Z"/></g>
<g><path style="opacity:1" fill="#5b4d3f" d="M 59.5,103.5 C 59.3284,104.492 59.6618,105.158 60.5,105.5C 40.3402,106.497 20.0069,106.83 -0.5,106.5C -0.5,106.167 -0.5,105.833 -0.5,105.5C 19.7334,106.136 39.7334,105.469 59.5,103.5 Z"/></g>
<g><path style="opacity:1" fill="#e8d8bd" d="M 61.5,95.5 C 63.1551,103.238 64.8217,111.238 66.5,119.5C 66.2716,121.207 65.9383,122.874 65.5,124.5C 64.5084,124.328 63.8417,124.662 63.5,125.5C 62.5119,120.36 62.1786,115.026 62.5,109.5C 62.7709,107.62 62.1042,106.287 60.5,105.5C 59.6618,105.158 59.3284,104.492 59.5,103.5C 61.1947,101.61 61.5281,99.2769 60.5,96.5C 61.1667,96.5 61.5,96.1667 61.5,95.5 Z"/></g>
<g><path style="opacity:1" fill="#8b5f29" d="M 79.5,98.5 C 83.7095,101.328 88.3761,103.328 93.5,104.5C 95.4386,106.989 95.7719,106.656 94.5,103.5C 94.8333,102.5 95.5,101.833 96.5,101.5C 98.1667,102.167 99.8333,102.833 101.5,103.5C 105.844,101.412 107.844,102.745 107.5,107.5C 105.599,107.567 103.766,107.233 102,106.5C 101,107.167 100,107.833 99,108.5C 96.6667,107.167 94.3333,107.167 92,108.5C 90.7387,108.241 89.7387,107.574 89,106.5C 88.6667,107.167 88.3333,107.833 88,108.5C 87.15,107.576 86.15,107.576 85,108.5C 83.7147,108.05 82.548,107.383 81.5,106.5C 78.4646,108.301 75.1313,108.968 71.5,108.5C 70.6236,108.631 69.9569,108.298 69.5,107.5C 71.007,106.611 72.3403,105.611 73.5,104.5C 74.7564,104.904 75.9231,105.571 77,106.5C 81.4321,104.629 81.5988,102.296 77.5,99.5C 77.9569,98.7025 78.6236,98.3691 79.5,98.5 Z"/></g>
<g><path style="opacity:1" fill="#ccab62" d="M 178.5,97.5 C 162.105,103.175 145.105,106.508 127.5,107.5C 131.438,105.573 135.771,104.073 140.5,103C 153.209,101.399 165.876,99.5653 178.5,97.5 Z"/></g>
<g><path style="opacity:1" fill="#897c6d" d="M 60.5,105.5 C 62.1042,106.287 62.7709,107.62 62.5,109.5C 41.5225,108.558 20.5225,108.225 -0.5,108.5C -0.5,107.833 -0.5,107.167 -0.5,106.5C 20.0069,106.83 40.3402,106.497 60.5,105.5 Z"/></g>
<g><path style="opacity:1" fill="#cdb17f" d="M 185.5,104.5 C 185.5,106.833 185.5,109.167 185.5,111.5C 185.167,111.5 184.833,111.5 184.5,111.5C 181.436,111.072 178.436,110.406 175.5,109.5C 175.5,110.833 175.5,112.167 175.5,113.5C 170.026,114.207 164.693,115.207 159.5,116.5C 159.5,114.833 159.5,113.167 159.5,111.5C 164.909,109.81 170.242,107.81 175.5,105.5C 178.768,104.513 182.102,104.18 185.5,104.5 Z"/></g>
<g><path style="opacity:1" fill="#b28128" d="M 67.5,103.5 C 69.5,103.5 71.5,103.5 73.5,103.5C 73.5,103.833 73.5,104.167 73.5,104.5C 72.3403,105.611 71.007,106.611 69.5,107.5C 69.9569,108.298 70.6236,108.631 71.5,108.5C 72.2341,109.708 72.5674,111.041 72.5,112.5C 76.0681,112.759 77.4015,114.759 76.5,118.5C 72.725,118.616 71.0583,120.616 71.5,124.5C 68.8049,124.563 67.8049,125.563 68.5,127.5C 65.4331,127.879 64.4331,126.879 65.5,124.5C 66.1667,124.5 66.8333,124.5 67.5,124.5C 69.2549,123.038 70.5882,121.205 71.5,119C 70.572,118.612 69.9054,117.945 69.5,117C 70.8561,115.433 71.5228,113.6 71.5,111.5C 69.8333,111.5 68.1667,111.5 66.5,111.5C 65.2,108.679 65.5333,106.012 67.5,103.5 Z"/></g>
<g><path style="opacity:1" fill="#cdac4c" d="M 185.5,95.5 C 185.5,97.8333 185.5,100.167 185.5,102.5C 180.821,102.334 176.155,102.501 171.5,103C 166.596,106.982 160.929,108.982 154.5,109C 152.509,109.374 150.842,110.207 149.5,111.5C 144.903,110.923 140.736,111.923 137,114.5C 135.016,114.074 133.016,113.74 131,113.5C 128.23,114.545 125.397,115.212 122.5,115.5C 122.5,113.5 122.5,111.5 122.5,109.5C 124.306,108.976 125.972,108.309 127.5,107.5C 145.105,106.508 162.105,103.175 178.5,97.5C 181.079,97.6061 183.412,96.9395 185.5,95.5 Z"/></g>
<g><path style="opacity:1" fill="#946b26" d="M 116.5,100.5 C 116.833,100.5 117.167,100.5 117.5,100.5C 118.082,101.931 118.915,103.264 120,104.5C 120.333,104.167 120.667,103.833 121,103.5C 121.209,105.689 120.875,107.689 120,109.5C 120.977,108.226 121.811,108.226 122.5,109.5C 122.5,111.5 122.5,113.5 122.5,115.5C 120.926,115.937 119.759,116.937 119,118.5C 118.667,117.5 118.333,116.5 118,115.5C 117.667,115.833 117.333,116.167 117,116.5C 116.626,118.898 116.626,121.231 117,123.5C 115.989,122.663 114.822,122.33 113.5,122.5C 113.247,124.827 113.914,126.827 115.5,128.5C 115.291,129.086 114.957,129.586 114.5,130C 116.251,131.145 118.084,131.645 120,131.5C 119.593,135.447 119.927,139.447 121,143.5C 123.035,144.761 124.535,146.428 125.5,148.5C 124.581,151.544 122.581,153.211 119.5,153.5C 117.879,153.213 116.879,152.213 116.5,150.5C 116.844,147.964 117.844,145.797 119.5,144C 118.552,143.517 117.552,143.351 116.5,143.5C 115.571,140.476 114.238,137.642 112.5,135C 112.833,134.667 113.167,134.333 113.5,134C 110.337,130.808 106.67,129.974 102.5,131.5C 104.291,132.17 105.958,132.837 107.5,133.5C 100.772,134.85 94.2721,134.183 88,131.5C 87.3828,132.449 87.5494,133.282 88.5,134C 86.8659,134.494 85.1992,134.66 83.5,134.5C 83.5,133.5 83.5,132.5 83.5,131.5C 82.1667,131.5 80.8333,131.5 79.5,131.5C 77.4336,129.801 75.1003,128.468 72.5,127.5C 71.5,127.5 70.5,127.5 69.5,127.5C 69.1667,127.5 68.8333,127.5 68.5,127.5C 67.8049,125.563 68.8049,124.563 71.5,124.5C 77.0404,123.87 82.5404,123.536 88,123.5C 93.4317,124.369 98.5984,125.702 103.5,127.5C 105.607,128.468 107.941,128.802 110.5,128.5C 110.657,127.127 110.49,125.793 110,124.5C 109.692,125.308 109.192,125.975 108.5,126.5C 105.961,124.351 104.961,121.851 105.5,119C 101.571,116.919 97.7372,117.086 94,119.5C 89.2259,118.112 84.5593,116.445 80,114.5C 78.2509,114.748 77.4176,115.748 77.5,117.5C 77.5,118.167 77.1667,118.5 76.5,118.5C 77.4015,114.759 76.0681,112.759 72.5,112.5C 72.5674,111.041 72.2341,109.708 71.5,108.5C 75.1313,108.968 78.4646,108.301 81.5,106.5C 82.548,107.383 83.7147,108.05 85,108.5C 86.15,107.576 87.15,107.576 88,108.5C 88.3333,107.833 88.6667,107.167 89,106.5C 89.7387,107.574 90.7387,108.241 92,108.5C 94.3333,107.167 96.6667,107.167 99,108.5C 100,107.833 101,107.167 102,106.5C 103.766,107.233 105.599,107.567 107.5,107.5C 107.844,102.745 105.844,101.412 101.5,103.5C 99.8333,102.833 98.1667,102.167 96.5,101.5C 95.5,101.833 94.8333,102.5 94.5,103.5C 95.7719,106.656 95.4386,106.989 93.5,104.5C 88.3761,103.328 83.7095,101.328 79.5,98.5C 79.5,97.5 79.5,96.5 79.5,95.5C 82.5184,95.3354 85.5184,95.502 88.5,96C 90,98.1667 91.1667,98 92,95.5C 94.0693,98.4773 95.9026,98.6439 97.5,96C 94.9365,95.237 94.9365,94.737 97.5,94.5C 99.8292,95.9979 101.663,97.9979 103,100.5C 103.388,99.572 104.055,98.9054 105,98.5C 107.196,99.0903 109.362,99.7569 111.5,100.5C 113.207,104.136 114.374,104.136 115,100.5C 115.69,101.738 116.19,101.738 116.5,100.5 Z"/></g>
<g><path style="opacity:1" fill="#caad69" d="M 185.5,102.5 C 185.5,103.167 185.5,103.833 185.5,104.5C 182.102,104.18 178.768,104.513 175.5,105.5C 170.242,107.81 164.909,109.81 159.5,111.5C 159.5,113.167 159.5,114.833 159.5,116.5C 164.693,115.207 170.026,114.207 175.5,113.5C 175.5,112.167 175.5,110.833 175.5,109.5C 178.436,110.406 181.436,111.072 184.5,111.5C 184.586,112.496 184.252,113.329 183.5,114C 175.158,114.633 167.158,116.467 159.5,119.5C 155.893,120.489 152.226,120.823 148.5,120.5C 150.631,119.686 152.964,119.186 155.5,119C 156.167,118.333 156.833,117.667 157.5,117C 156.167,115.333 156.167,113.667 157.5,112C 154.854,111.503 152.187,111.336 149.5,111.5C 150.842,110.207 152.509,109.374 154.5,109C 160.929,108.982 166.596,106.982 171.5,103C 176.155,102.501 180.821,102.334 185.5,102.5 Z"/></g>
<g><path style="opacity:1" fill="#af781b" d="M 239.5,89.5 C 238.325,89.719 237.325,89.3857 236.5,88.5C 235.907,86.6183 235.24,84.7849 234.5,83C 233.5,82.3333 232.5,82.3333 231.5,83C 230.013,85.4852 228.179,87.6518 226,89.5C 225.11,92.7055 225.443,95.7055 227,98.5C 227.483,97.552 227.649,96.552 227.5,95.5C 231.949,95.1936 235.949,96.0269 239.5,98C 239.892,95.6457 239.892,93.1457 239.5,90.5C 240.898,91.7767 241.564,93.4434 241.5,95.5C 240.345,98.0115 239.678,100.678 239.5,103.5C 238.127,103.343 236.793,103.51 235.5,104C 236.42,106.835 237.42,109.668 238.5,112.5C 236.404,115.208 233.737,116.875 230.5,117.5C 230.5,118.833 230.5,120.167 230.5,121.5C 230.167,121.5 229.833,121.5 229.5,121.5C 227.418,121.528 225.584,120.861 224,119.5C 219.92,120.3 215.753,120.8 211.5,121C 208.236,121.638 205.236,122.804 202.5,124.5C 201.957,124.44 201.624,124.107 201.5,123.5C 202.098,122.205 202.598,120.872 203,119.5C 205.781,118.053 208.281,116.22 210.5,114C 216.833,113.667 223.167,113.333 229.5,113C 231.155,111.556 231.822,109.722 231.5,107.5C 229.127,106.797 227.127,105.464 225.5,103.5C 221.764,94.3877 223.431,86.5543 230.5,80C 233.429,79.2228 236.263,79.3895 239,80.5C 239.498,83.4816 239.665,86.4816 239.5,89.5 Z"/></g>
<g><path style="opacity:1" fill="#c9ac73" d="M 149.5,111.5 C 152.187,111.336 154.854,111.503 157.5,112C 156.167,113.667 156.167,115.333 157.5,117C 156.833,117.667 156.167,118.333 155.5,119C 152.964,119.186 150.631,119.686 148.5,120.5C 146.958,121.301 145.292,121.634 143.5,121.5C 143.5,122.5 143.5,123.5 143.5,124.5C 137.008,125.044 130.674,126.044 124.5,127.5C 121.429,123.996 120.763,119.996 122.5,115.5C 125.397,115.212 128.23,114.545 131,113.5C 133.016,113.74 135.016,114.074 137,114.5C 140.736,111.923 144.903,110.923 149.5,111.5 Z"/></g>
<g><path style="opacity:1" fill="#d1b05e" d="M 251.5,111.5 C 254.5,111.5 257.5,111.5 260.5,111.5C 260.5,113.5 260.5,115.5 260.5,117.5C 259.833,117.5 259.167,117.5 258.5,117.5C 256.567,117.271 254.9,116.438 253.5,115C 252.177,114.184 251.511,113.017 251.5,111.5 Z"/></g>
<g><path style="opacity:1" fill="#dabe6f" d="M 63.5,87.5 C 62.2584,89.6112 62.2584,91.6112 63.5,93.5C 64.2512,95.7129 65.4179,97.7129 67,99.5C 67.49,100.793 67.6567,102.127 67.5,103.5C 65.5333,106.012 65.2,108.679 66.5,111.5C 67.1995,115.798 67.5328,120.131 67.5,124.5C 66.8333,124.5 66.1667,124.5 65.5,124.5C 65.9383,122.874 66.2716,121.207 66.5,119.5C 64.8217,111.238 63.1551,103.238 61.5,95.5C 60.9644,92.3019 61.631,89.6353 63.5,87.5 Z"/></g>
<g><path style="opacity:1" fill="#c7a040" d="M 66.5,111.5 C 68.1667,111.5 69.8333,111.5 71.5,111.5C 71.5228,113.6 70.8561,115.433 69.5,117C 69.9054,117.945 70.572,118.612 71.5,119C 70.5882,121.205 69.2549,123.038 67.5,124.5C 67.5328,120.131 67.1995,115.798 66.5,111.5 Z"/></g>
<g><path style="opacity:1" fill="#e0be3d" d="M 199.5,61.5 C 201.527,61.3379 203.527,61.5045 205.5,62C 205.167,62.3333 204.833,62.6667 204.5,63C 205.428,63.3879 206.095,64.0546 206.5,65C 205.742,67.5763 204.409,69.743 202.5,71.5C 202.046,74.222 201.38,76.8886 200.5,79.5C 198.803,80.3636 197.637,81.6969 197,83.5C 196.667,86.5 196.333,89.5 196,92.5C 195.586,92.9574 195.086,93.2907 194.5,93.5C 193.338,98.1313 193.172,102.798 194,107.5C 195.157,111.782 195.99,116.116 196.5,120.5C 195.209,120.263 194.209,120.596 193.5,121.5C 192.833,121.5 192.167,121.5 191.5,121.5C 191.5,121.167 191.5,120.833 191.5,120.5C 191.725,118.284 190.892,116.617 189,115.5C 188.754,110.628 188.254,105.795 187.5,101C 189.826,93.5127 192.826,86.346 196.5,79.5C 199.463,70.3174 196.463,67.4841 187.5,71C 181.99,73.0949 181.323,75.9282 185.5,79.5C 182.958,78.3756 180.292,77.5423 177.5,77C 176.748,76.3292 176.414,75.4959 176.5,74.5C 179.091,72.5756 181.425,70.2422 183.5,67.5C 185.749,66.9202 187.415,65.5869 188.5,63.5C 189.791,63.7373 190.791,63.404 191.5,62.5C 194.167,62.1667 196.833,61.8333 199.5,61.5 Z"/></g>
<g><path style="opacity:1" fill="#79511d" d="M 103.5,127.5 C 102.741,125.569 101.407,124.069 99.5,123C 92.35,122.255 85.6833,120.088 79.5,116.5C 78.8165,116.863 78.1499,117.196 77.5,117.5C 77.4176,115.748 78.2509,114.748 80,114.5C 84.5593,116.445 89.2259,118.112 94,119.5C 97.7372,117.086 101.571,116.919 105.5,119C 104.961,121.851 105.961,124.351 108.5,126.5C 109.192,125.975 109.692,125.308 110,124.5C 110.49,125.793 110.657,127.127 110.5,128.5C 107.941,128.802 105.607,128.468 103.5,127.5 Z"/></g>
<g><path style="opacity:1" fill="#c1ad8b" d="M 251.5,111.5 C 251.511,113.017 252.177,114.184 253.5,115C 254.9,116.438 256.567,117.271 258.5,117.5C 260,119.509 259.5,120.842 257,121.5C 251.215,120.566 245.382,120.232 239.5,120.5C 239.5,119.167 239.5,117.833 239.5,116.5C 239.821,114.952 240.821,114.285 242.5,114.5C 244.083,109.353 247.083,108.353 251.5,111.5 Z"/></g>
<g><path style="opacity:1" fill="#9f7941" d="M 103.5,127.5 C 98.5984,125.702 93.4317,124.369 88,123.5C 82.5404,123.536 77.0404,123.87 71.5,124.5C 71.0583,120.616 72.725,118.616 76.5,118.5C 77.1667,118.5 77.5,118.167 77.5,117.5C 78.1499,117.196 78.8165,116.863 79.5,116.5C 85.6833,120.088 92.35,122.255 99.5,123C 101.407,124.069 102.741,125.569 103.5,127.5 Z"/></g>
<g><path style="opacity:1" fill="#905a18" d="M 229.5,121.5 C 229.5,122.5 229.5,123.5 229.5,124.5C 227.5,124.5 225.5,124.5 223.5,124.5C 223.5,125.5 223.5,126.5 223.5,127.5C 216.407,127.659 209.407,126.992 202.5,125.5C 202.5,125.167 202.5,124.833 202.5,124.5C 205.236,122.804 208.236,121.638 211.5,121C 215.753,120.8 219.92,120.3 224,119.5C 225.584,120.861 227.418,121.528 229.5,121.5 Z"/></g>
<g><path style="opacity:1" fill="#c6ac77" d="M 239.5,116.5 C 239.5,117.833 239.5,119.167 239.5,120.5C 245.382,120.232 251.215,120.566 257,121.5C 259.5,120.842 260,119.509 258.5,117.5C 259.167,117.5 259.833,117.5 260.5,117.5C 260.5,119.167 260.5,120.833 260.5,122.5C 252.167,122.5 243.833,122.5 235.5,122.5C 235.167,122.5 234.833,122.5 234.5,122.5C 234.712,119.288 236.379,117.288 239.5,116.5 Z"/></g>
<g><path style="opacity:1" fill="#c8a747" d="M 184.5,111.5 C 184.833,111.5 185.167,111.5 185.5,111.5C 185.5,114.167 185.5,116.833 185.5,119.5C 181.995,120.024 178.661,121.024 175.5,122.5C 168.392,124.763 161.059,125.929 153.5,126C 148.92,128.761 143.92,130.594 138.5,131.5C 134.893,132.489 131.226,132.823 127.5,132.5C 127.5,133.5 127.5,134.5 127.5,135.5C 125.708,135.366 124.042,135.699 122.5,136.5C 122.414,135.504 122.748,134.671 123.5,134C 120.921,132.388 120.921,130.888 123.5,129.5C 125.7,130.456 126.033,129.79 124.5,127.5C 130.674,126.044 137.008,125.044 143.5,124.5C 143.5,123.5 143.5,122.5 143.5,121.5C 145.292,121.634 146.958,121.301 148.5,120.5C 152.226,120.823 155.893,120.489 159.5,119.5C 167.158,116.467 175.158,114.633 183.5,114C 184.252,113.329 184.586,112.496 184.5,111.5 Z"/></g>
<g><path style="opacity:1" fill="#967038" d="M 229.5,121.5 C 229.833,121.5 230.167,121.5 230.5,121.5C 231.568,122.434 232.901,122.768 234.5,122.5C 234.833,122.5 235.167,122.5 235.5,122.5C 241.987,123.515 248.654,124.182 255.5,124.5C 255.5,126.167 255.5,127.833 255.5,129.5C 253.833,129.5 252.167,129.5 250.5,129.5C 241.273,129.877 232.273,129.211 223.5,127.5C 229.681,127.529 235.847,127.862 242,128.5C 245.258,128.507 248.425,128.007 251.5,127C 250.167,126.333 248.833,125.667 247.5,125C 241.509,124.501 235.509,124.334 229.5,124.5C 229.5,123.5 229.5,122.5 229.5,121.5 Z"/></g>
<g><path style="opacity:1" fill="#af8c48" d="M 122.5,115.5 C 120.763,119.996 121.429,123.996 124.5,127.5C 126.033,129.79 125.7,130.456 123.5,129.5C 120.921,130.888 120.921,132.388 123.5,134C 122.748,134.671 122.414,135.504 122.5,136.5C 121.746,139.078 121.746,141.744 122.5,144.5C 124.292,144.366 125.958,144.699 127.5,145.5C 127.5,147.167 127.5,148.833 127.5,150.5C 132.82,149.761 138.154,149.094 143.5,148.5C 137.854,149.8 132.187,151.467 126.5,153.5C 124.786,152.391 124.119,153.058 124.5,155.5C 125.675,155.281 126.675,155.614 127.5,156.5C 126.209,157.527 126.209,158.527 127.5,159.5C 126.081,160.451 124.415,160.784 122.5,160.5C 121.801,158.005 120.801,155.672 119.5,153.5C 122.581,153.211 124.581,151.544 125.5,148.5C 124.535,146.428 123.035,144.761 121,143.5C 119.927,139.447 119.593,135.447 120,131.5C 118.084,131.645 116.251,131.145 114.5,130C 114.957,129.586 115.291,129.086 115.5,128.5C 113.914,126.827 113.247,124.827 113.5,122.5C 114.822,122.33 115.989,122.663 117,123.5C 116.626,121.231 116.626,118.898 117,116.5C 117.333,116.167 117.667,115.833 118,115.5C 118.333,116.5 118.667,117.5 119,118.5C 119.759,116.937 120.926,115.937 122.5,115.5 Z"/></g>
<g><path style="opacity:1" fill="#bdb4a6" d="M -0.5,108.5 C 20.5225,108.225 41.5225,108.558 62.5,109.5C 62.1786,115.026 62.5119,120.36 63.5,125.5C 63.5,126.833 63.5,128.167 63.5,129.5C 63.3543,131.806 63.021,134.139 62.5,136.5C 61.2502,136.577 60.4169,137.244 60,138.5C 59.5783,135.764 59.5783,133.098 60,130.5C 58.8118,131.563 58.3118,132.897 58.5,134.5C 56.857,134.48 55.5237,135.147 54.5,136.5C 48.2474,135.093 41.9141,134.093 35.5,133.5C 25.7508,134.396 16.0842,134.396 6.5,133.5C 4.27058,132.423 1.93724,131.756 -0.5,131.5C -0.5,123.833 -0.5,116.167 -0.5,108.5 Z"/></g>
<g><path style="opacity:1" fill="#7c561c" d="M 229.5,124.5 C 235.509,124.334 241.509,124.501 247.5,125C 248.833,125.667 250.167,126.333 251.5,127C 248.425,128.007 245.258,128.507 242,128.5C 235.847,127.862 229.681,127.529 223.5,127.5C 223.5,126.5 223.5,125.5 223.5,124.5C 225.5,124.5 227.5,124.5 229.5,124.5 Z"/></g>
<g><path style="opacity:1" fill="#c9ab75" d="M 185.5,119.5 C 187.435,120.15 189.435,120.483 191.5,120.5C 191.5,120.833 191.5,121.167 191.5,121.5C 194.48,124.487 198.147,126.154 202.5,126.5C 203.167,126.5 203.5,126.833 203.5,127.5C 202.167,127.5 200.833,127.5 199.5,127.5C 197.088,127.669 194.921,127.003 193,125.5C 191.7,126.707 190.2,127.374 188.5,127.5C 189.054,131.744 188.054,135.41 185.5,138.5C 186.114,134.865 186.448,131.198 186.5,127.5C 182.304,127.129 178.637,128.129 175.5,130.5C 169.924,131.723 164.591,133.723 159.5,136.5C 157.143,136.663 154.81,136.497 152.5,136C 149.786,134.206 146.786,133.04 143.5,132.5C 144.833,132.167 146.167,131.833 147.5,131.5C 151.471,132.38 155.471,133.047 159.5,133.5C 159.5,132.167 159.5,130.833 159.5,129.5C 157.396,129.799 155.396,129.466 153.5,128.5C 157.459,127.673 161.459,127.173 165.5,127C 169.198,125.807 172.531,124.307 175.5,122.5C 178.661,121.024 181.995,120.024 185.5,119.5 Z"/></g>
<g><path style="opacity:1" fill="#b28f48" d="M 235.5,122.5 C 243.833,122.5 252.167,122.5 260.5,122.5C 260.5,125.5 260.5,128.5 260.5,131.5C 257.167,131.167 253.833,130.833 250.5,130.5C 250.5,130.167 250.5,129.833 250.5,129.5C 252.167,129.5 253.833,129.5 255.5,129.5C 255.5,127.833 255.5,126.167 255.5,124.5C 248.654,124.182 241.987,123.515 235.5,122.5 Z"/></g>
<g><path style="opacity:1" fill="#b39369" d="M 202.5,126.5 C 202.5,126.167 202.5,125.833 202.5,125.5C 209.407,126.992 216.407,127.659 223.5,127.5C 232.273,129.211 241.273,129.877 250.5,129.5C 250.5,129.833 250.5,130.167 250.5,130.5C 244.347,131.653 238.014,131.82 231.5,131C 222.273,129.751 212.939,128.584 203.5,127.5C 203.5,126.833 203.167,126.5 202.5,126.5 Z"/></g>
<g><path style="opacity:1" fill="#c69b33" d="M 69.5,127.5 C 70.5,127.5 71.5,127.5 72.5,127.5C 72.5191,129.06 72.8524,130.56 73.5,132C 73.4371,135.488 71.7705,137.321 68.5,137.5C 71.0217,135.647 71.0217,133.647 68.5,131.5C 69.2458,130.264 69.5792,128.93 69.5,127.5 Z"/></g>
<g><path style="opacity:1" fill="#beb19d" d="M 62.5,136.5 C 62.5,137.5 62.5,138.5 62.5,139.5C 62.6309,140.376 62.2975,141.043 61.5,141.5C 59.8697,140.102 58.0363,139.102 56,138.5C 53.3851,140.139 50.5518,141.473 47.5,142.5C 41.2015,143.496 34.8682,143.83 28.5,143.5C 28.8442,146.562 29.5109,149.562 30.5,152.5C 33.4212,151.593 36.4212,151.26 39.5,151.5C 39.5,152.5 39.5,153.5 39.5,154.5C 41.9892,154.298 44.3225,154.798 46.5,156C 44.6385,157.028 43.3052,158.528 42.5,160.5C 43,160.833 43.5,161.167 44,161.5C 49.16,160.827 54.4934,160.493 60,160.5C 60.8333,160.667 61.6667,160.833 62.5,161C 61.2625,161.232 60.2625,161.732 59.5,162.5C 57.901,162.232 56.5676,162.566 55.5,163.5C 55.5,163.833 55.5,164.167 55.5,164.5C 51.9891,164.899 48.6557,165.566 45.5,166.5C 42.248,166.71 39.248,166.044 36.5,164.5C 31.6579,162.825 26.9913,160.658 22.5,158C 14.6727,152.334 7.00601,146.501 -0.5,140.5C -0.5,137.5 -0.5,134.5 -0.5,131.5C 1.93724,131.756 4.27058,132.423 6.5,133.5C 16.0842,134.396 25.7508,134.396 35.5,133.5C 41.9141,134.093 48.2474,135.093 54.5,136.5C 55.5237,135.147 56.857,134.48 58.5,134.5C 58.3118,132.897 58.8118,131.563 60,130.5C 59.5783,133.098 59.5783,135.764 60,138.5C 60.4169,137.244 61.2502,136.577 62.5,136.5 Z"/></g>
<g><path style="opacity:1" fill="#c4a669" d="M 175.5,122.5 C 172.531,124.307 169.198,125.807 165.5,127C 161.459,127.173 157.459,127.673 153.5,128.5C 155.396,129.466 157.396,129.799 159.5,129.5C 159.5,130.833 159.5,132.167 159.5,133.5C 155.471,133.047 151.471,132.38 147.5,131.5C 146.167,131.833 144.833,132.167 143.5,132.5C 146.786,133.04 149.786,134.206 152.5,136C 154.81,136.497 157.143,136.663 159.5,136.5C 153.771,137.272 148.438,139.272 143.5,142.5C 138.107,143.624 132.774,144.624 127.5,145.5C 125.958,144.699 124.292,144.366 122.5,144.5C 121.746,141.744 121.746,139.078 122.5,136.5C 124.042,135.699 125.708,135.366 127.5,135.5C 127.5,134.5 127.5,133.5 127.5,132.5C 131.226,132.823 134.893,132.489 138.5,131.5C 143.92,130.594 148.92,128.761 153.5,126C 161.059,125.929 168.392,124.763 175.5,122.5 Z"/></g>
<g><path style="opacity:1" fill="#c9b292" d="M 199.5,127.5 C 200.833,127.5 202.167,127.5 203.5,127.5C 212.939,128.584 222.273,129.751 231.5,131C 238.014,131.82 244.347,131.653 250.5,130.5C 253.833,130.833 257.167,131.167 260.5,131.5C 260.5,137.833 260.5,144.167 260.5,150.5C 250.865,149.172 241.199,148.172 231.5,147.5C 223.517,146.834 215.517,146.501 207.5,146.5C 202.417,144.922 197.084,144.255 191.5,144.5C 191.5,144.167 191.5,143.833 191.5,143.5C 193.277,142.4 195.277,141.566 197.5,141C 196.13,139.559 195.13,137.892 194.5,136C 196.439,135.092 197.439,133.592 197.5,131.5C 199.854,131.162 202.187,130.662 204.5,130C 202.509,129.626 200.842,128.793 199.5,127.5 Z"/></g>
<g><path style="opacity:1" fill="#8a6430" d="M 79.5,131.5 C 80.8333,131.5 82.1667,131.5 83.5,131.5C 83.5,132.5 83.5,133.5 83.5,134.5C 85.1992,134.66 86.8659,134.494 88.5,134C 87.5494,133.282 87.3828,132.449 88,131.5C 94.2721,134.183 100.772,134.85 107.5,133.5C 107.897,135.662 109.231,136.995 111.5,137.5C 112.522,140.202 113.522,142.869 114.5,145.5C 110.302,144.125 105.969,143.458 101.5,143.5C 101.421,142.07 101.754,140.736 102.5,139.5C 101.311,138.571 99.9778,138.238 98.5,138.5C 98.9231,141.288 97.9231,143.288 95.5,144.5C 92.2094,143.618 88.876,142.952 85.5,142.5C 84.9965,138.665 83.9965,138.665 82.5,142.5C 81.7348,141.388 80.7348,140.721 79.5,140.5C 78.8166,138.824 77.4832,138.157 75.5,138.5C 75.1868,135.163 76.5201,132.829 79.5,131.5 Z"/></g>
<g><path style="opacity:1" fill="#d7bc6b" d="M 65.5,124.5 C 64.4331,126.879 65.4331,127.879 68.5,127.5C 68.8333,127.5 69.1667,127.5 69.5,127.5C 69.5792,128.93 69.2458,130.264 68.5,131.5C 71.0217,133.647 71.0217,135.647 68.5,137.5C 68.7845,139.415 68.4511,141.081 67.5,142.5C 66.2173,139.011 66.2173,135.511 67.5,132C 66.6443,130.405 65.3109,129.572 63.5,129.5C 63.5,128.167 63.5,126.833 63.5,125.5C 63.8417,124.662 64.5084,124.328 65.5,124.5 Z"/></g>
<g><path style="opacity:1" fill="#cab99f" d="M 62.5,139.5 C 63.5705,145.609 65.2372,151.609 67.5,157.5C 66.1667,157.5 64.8333,157.5 63.5,157.5C 63.5,158.833 63.5,160.167 63.5,161.5C 64.5,161.5 65.5,161.5 66.5,161.5C 68.8333,161.5 71.1667,161.5 73.5,161.5C 74.8333,161.5 76.1667,161.5 77.5,161.5C 78.4916,161.328 79.1583,161.662 79.5,162.5C 72.8333,162.5 66.1667,162.5 59.5,162.5C 60.2625,161.732 61.2625,161.232 62.5,161C 61.6667,160.833 60.8333,160.667 60,160.5C 54.4934,160.493 49.16,160.827 44,161.5C 43.5,161.167 43,160.833 42.5,160.5C 43.3052,158.528 44.6385,157.028 46.5,156C 44.3225,154.798 41.9892,154.298 39.5,154.5C 39.5,153.5 39.5,152.5 39.5,151.5C 36.4212,151.26 33.4212,151.593 30.5,152.5C 29.5109,149.562 28.8442,146.562 28.5,143.5C 34.8682,143.83 41.2015,143.496 47.5,142.5C 50.5518,141.473 53.3851,140.139 56,138.5C 58.0363,139.102 59.8697,140.102 61.5,141.5C 62.2975,141.043 62.6309,140.376 62.5,139.5 Z"/></g>
<g><path style="opacity:1" fill="#dfc598" d="M 199.5,127.5 C 200.842,128.793 202.509,129.626 204.5,130C 202.187,130.662 199.854,131.162 197.5,131.5C 197.439,133.592 196.439,135.092 194.5,136C 195.13,137.892 196.13,139.559 197.5,141C 195.277,141.566 193.277,142.4 191.5,143.5C 189.5,143.5 187.5,143.5 185.5,143.5C 185.5,141.833 185.5,140.167 185.5,138.5C 188.054,135.41 189.054,131.744 188.5,127.5C 190.2,127.374 191.7,126.707 193,125.5C 194.921,127.003 197.088,127.669 199.5,127.5 Z"/></g>
<g><path style="opacity:1" fill="#c19c3b" d="M 175.5,130.5 C 178.5,130.5 181.5,130.5 184.5,130.5C 184.762,131.978 184.429,133.311 183.5,134.5C 180.916,135.393 178.249,135.726 175.5,135.5C 175.5,136.5 175.5,137.5 175.5,138.5C 167.601,140.403 159.601,142.403 151.5,144.5C 148.452,145.463 145.786,146.796 143.5,148.5C 138.154,149.094 132.82,149.761 127.5,150.5C 127.5,148.833 127.5,147.167 127.5,145.5C 132.774,144.624 138.107,143.624 143.5,142.5C 148.438,139.272 153.771,137.272 159.5,136.5C 164.591,133.723 169.924,131.723 175.5,130.5 Z"/></g>
<g><path style="opacity:1" fill="#916722" d="M 78.5,142.5 C 79.6002,143.558 80.9336,144.392 82.5,145C 86.7901,145.923 91.1234,146.423 95.5,146.5C 95.5,147.5 95.5,148.5 95.5,149.5C 86.284,148.664 78.9507,151.664 73.5,158.5C 73.1961,157.85 72.8627,157.183 72.5,156.5C 75.2336,152.556 76.9003,148.223 77.5,143.5C 75.7376,143.357 74.0709,143.691 72.5,144.5C 71.6919,144.192 71.0253,143.692 70.5,143C 71.938,142.781 73.2713,142.281 74.5,141.5C 73.3915,139.786 74.0582,139.119 76.5,139.5C 76.2852,141.179 76.9519,142.179 78.5,142.5 Z"/></g>
<g><path style="opacity:1" fill="#bc9e62" d="M 185.5,138.5 C 185.5,140.167 185.5,141.833 185.5,143.5C 187.5,143.5 189.5,143.5 191.5,143.5C 191.5,143.833 191.5,144.167 191.5,144.5C 186.645,143.953 181.978,143.953 177.5,144.5C 176.5,144.833 175.833,145.5 175.5,146.5C 169.828,147.836 164.495,150.003 159.5,153C 151.814,154.838 144.147,156.838 136.5,159C 133.518,159.498 130.518,159.665 127.5,159.5C 126.209,158.527 126.209,157.527 127.5,156.5C 126.675,155.614 125.675,155.281 124.5,155.5C 124.119,153.058 124.786,152.391 126.5,153.5C 132.187,151.467 137.854,149.8 143.5,148.5C 145.786,146.796 148.452,145.463 151.5,144.5C 159.601,142.403 167.601,140.403 175.5,138.5C 175.5,137.5 175.5,136.5 175.5,135.5C 178.249,135.726 180.916,135.393 183.5,134.5C 184.429,133.311 184.762,131.978 184.5,130.5C 181.5,130.5 178.5,130.5 175.5,130.5C 178.637,128.129 182.304,127.129 186.5,127.5C 186.448,131.198 186.114,134.865 185.5,138.5 Z"/></g>
<g><path style="opacity:1" fill="#847668" d="M -0.5,144.5 C 4.8579,148.863 10.1912,153.197 15.5,157.5C 15.1583,158.338 14.4916,158.672 13.5,158.5C 8.80409,155.157 4.13742,151.824 -0.5,148.5C -0.5,147.167 -0.5,145.833 -0.5,144.5 Z"/></g>
<g><path style="opacity:1" fill="#7d561e" d="M 119.5,153.5 C 120.801,155.672 121.801,158.005 122.5,160.5C 121.292,159.766 119.959,159.433 118.5,159.5C 118.978,156.722 117.978,154.722 115.5,153.5C 109.613,152.82 103.78,152.487 98,152.5C 96.0107,152.921 94.1773,153.588 92.5,154.5C 91.791,153.596 90.791,153.263 89.5,153.5C 89.3862,155.718 88.7196,157.718 87.5,159.5C 84.9104,159.082 82.5771,158.082 80.5,156.5C 79.7255,158.396 78.7255,160.063 77.5,161.5C 76.1667,161.5 74.8333,161.5 73.5,161.5C 72.791,160.596 71.791,160.263 70.5,160.5C 70.8212,158.952 71.8212,158.285 73.5,158.5C 78.9507,151.664 86.284,148.664 95.5,149.5C 95.5,148.5 95.5,147.5 95.5,146.5C 91.1234,146.423 86.7901,145.923 82.5,145C 80.9336,144.392 79.6002,143.558 78.5,142.5C 79.3382,142.158 79.6716,141.492 79.5,140.5C 80.7348,140.721 81.7348,141.388 82.5,142.5C 83.9965,138.665 84.9965,138.665 85.5,142.5C 88.876,142.952 92.2094,143.618 95.5,144.5C 97.9231,143.288 98.9231,141.288 98.5,138.5C 99.9778,138.238 101.311,138.571 102.5,139.5C 101.754,140.736 101.421,142.07 101.5,143.5C 105.969,143.458 110.302,144.125 114.5,145.5C 113.522,142.869 112.522,140.202 111.5,137.5C 109.231,136.995 107.897,135.662 107.5,133.5C 105.958,132.837 104.291,132.17 102.5,131.5C 106.67,129.974 110.337,130.808 113.5,134C 113.167,134.333 112.833,134.667 112.5,135C 114.238,137.642 115.571,140.476 116.5,143.5C 117.552,143.351 118.552,143.517 119.5,144C 117.844,145.797 116.844,147.964 116.5,150.5C 116.879,152.213 117.879,153.213 119.5,153.5 Z"/></g>
<g><path style="opacity:1" fill="#76685a" d="M -0.5,150.5 C 2.52555,153.195 5.52555,155.862 8.5,158.5C 7.12656,158.657 5.79323,158.49 4.5,158C 3.15366,156.331 1.487,155.164 -0.5,154.5C -0.5,153.167 -0.5,151.833 -0.5,150.5 Z"/></g>
<g><path style="opacity:1" fill="#ab802a" d="M 72.5,127.5 C 75.1003,128.468 77.4336,129.801 79.5,131.5C 76.5201,132.829 75.1868,135.163 75.5,138.5C 77.4832,138.157 78.8166,138.824 79.5,140.5C 79.6716,141.492 79.3382,142.158 78.5,142.5C 76.9519,142.179 76.2852,141.179 76.5,139.5C 74.0582,139.119 73.3915,139.786 74.5,141.5C 73.2713,142.281 71.938,142.781 70.5,143C 71.0253,143.692 71.6919,144.192 72.5,144.5C 74.0709,143.691 75.7376,143.357 77.5,143.5C 76.9003,148.223 75.2336,152.556 72.5,156.5C 72.8627,157.183 73.1961,157.85 73.5,158.5C 71.8212,158.285 70.8212,158.952 70.5,160.5C 70.311,157.376 70.1443,154.043 70,150.5C 68.295,148.423 67.1283,146.09 66.5,143.5C 67.1667,143.5 67.5,143.167 67.5,142.5C 68.4511,141.081 68.7845,139.415 68.5,137.5C 71.7705,137.321 73.4371,135.488 73.5,132C 72.8524,130.56 72.5191,129.06 72.5,127.5 Z"/></g>
<g><path style="opacity:1" fill="#714f24" d="M 122.5,160.5 C 125.061,163.543 127.894,163.876 131,161.5C 132.011,161.892 132.511,162.559 132.5,163.5C 134.409,162.652 136.409,162.318 138.5,162.5C 138.53,163.497 138.03,164.164 137,164.5C 133.906,165.566 130.74,166.232 127.5,166.5C 125.626,165.715 123.626,165.048 121.5,164.5C 121.5,163.5 121.5,162.5 121.5,161.5C 120.041,161.567 118.708,161.234 117.5,160.5C 115.631,158.126 113.631,155.793 111.5,153.5C 105.717,154.754 99.8836,155.754 94,156.5C 92.9701,156.164 92.4701,155.497 92.5,154.5C 94.1773,153.588 96.0107,152.921 98,152.5C 103.78,152.487 109.613,152.82 115.5,153.5C 117.978,154.722 118.978,156.722 118.5,159.5C 119.959,159.433 121.292,159.766 122.5,160.5 Z"/></g>
<g><path style="opacity:1" fill="#895f1a" d="M 197.5,146.5 C 200.833,146.5 204.167,146.5 207.5,146.5C 215.543,147.614 223.543,148.948 231.5,150.5C 229.751,153.375 227.085,154.708 223.5,154.5C 223.785,156.288 223.452,157.955 222.5,159.5C 221.914,159.291 221.414,158.957 221,158.5C 214.718,160.643 208.218,162.31 201.5,163.5C 199.653,162.427 197.653,162.427 195.5,163.5C 194.883,161.771 193.883,160.271 192.5,159C 196.106,157.924 197.106,155.757 195.5,152.5C 197.978,150.92 198.645,148.92 197.5,146.5 Z"/></g>
<g><path style="opacity:1" fill="#60431c" d="M 92.5,154.5 C 92.4701,155.497 92.9701,156.164 94,156.5C 99.8836,155.754 105.717,154.754 111.5,153.5C 113.631,155.793 115.631,158.126 117.5,160.5C 115.94,160.519 114.44,160.852 113,161.5C 106.756,159.922 100.423,158.922 94,158.5C 91.9592,159.423 89.7925,159.756 87.5,159.5C 88.7196,157.718 89.3862,155.718 89.5,153.5C 90.791,153.263 91.791,153.596 92.5,154.5 Z"/></g>
<g><path style="opacity:1" fill="#31261b" d="M -0.5,140.5 C 7.00601,146.501 14.6727,152.334 22.5,158C 26.9913,160.658 31.6579,162.825 36.5,164.5C 36.6107,165.117 36.944,165.617 37.5,166C 33.7858,166.32 30.1191,166.82 26.5,167.5C 25.6868,166.347 24.6868,166.347 23.5,167.5C 23.5944,166.028 22.5944,164.862 20.5,164C 16.5618,161.862 12.5618,160.029 8.5,158.5C 5.52555,155.862 2.52555,153.195 -0.5,150.5C -0.5,149.833 -0.5,149.167 -0.5,148.5C 4.13742,151.824 8.80409,155.157 13.5,158.5C 17.8641,161.695 22.5307,163.695 27.5,164.5C 27.2907,163.914 26.9574,163.414 26.5,163C 22.501,161.667 18.8344,159.834 15.5,157.5C 10.1912,153.197 4.8579,148.863 -0.5,144.5C -0.5,143.167 -0.5,141.833 -0.5,140.5 Z"/></g>
<g><path style="opacity:1" fill="#e2cb9b" d="M 63.5,129.5 C 65.3109,129.572 66.6443,130.405 67.5,132C 66.2173,135.511 66.2173,139.011 67.5,142.5C 67.5,143.167 67.1667,143.5 66.5,143.5C 65.9033,143.735 65.5699,144.235 65.5,145C 67.0695,148.405 68.4028,151.905 69.5,155.5C 68.0144,157.302 67.0144,159.302 66.5,161.5C 65.5,161.5 64.5,161.5 63.5,161.5C 63.5,160.167 63.5,158.833 63.5,157.5C 64.8333,157.5 66.1667,157.5 67.5,157.5C 65.2372,151.609 63.5705,145.609 62.5,139.5C 62.5,138.5 62.5,137.5 62.5,136.5C 63.021,134.139 63.3543,131.806 63.5,129.5 Z"/></g>
<g><path style="opacity:1" fill="#c8a15c" d="M 66.5,143.5 C 67.1283,146.09 68.295,148.423 70,150.5C 70.1443,154.043 70.311,157.376 70.5,160.5C 71.791,160.263 72.791,160.596 73.5,161.5C 71.1667,161.5 68.8333,161.5 66.5,161.5C 67.0144,159.302 68.0144,157.302 69.5,155.5C 68.4028,151.905 67.0695,148.405 65.5,145C 65.5699,144.235 65.9033,143.735 66.5,143.5 Z"/></g>
<g><path style="opacity:1" fill="#482b11" d="M 87.5,159.5 C 89.7925,159.756 91.9592,159.423 94,158.5C 100.423,158.922 106.756,159.922 113,161.5C 114.44,160.852 115.94,160.519 117.5,160.5C 118.708,161.234 120.041,161.567 121.5,161.5C 121.5,162.5 121.5,163.5 121.5,164.5C 117.649,165.029 114.149,164.362 111,162.5C 109.82,163.684 108.32,164.351 106.5,164.5C 99.849,163.613 93.1823,162.946 86.5,162.5C 85.1667,162.5 83.8333,162.5 82.5,162.5C 81.5,162.5 80.5,162.5 79.5,162.5C 79.1583,161.662 78.4916,161.328 77.5,161.5C 78.7255,160.063 79.7255,158.396 80.5,156.5C 82.5771,158.082 84.9104,159.082 87.5,159.5 Z"/></g>
<g><path style="opacity:1" fill="#a67c26" d="M 197.5,146.5 C 198.645,148.92 197.978,150.92 195.5,152.5C 197.106,155.757 196.106,157.924 192.5,159C 193.883,160.271 194.883,161.771 195.5,163.5C 191.143,166.743 188.143,165.576 186.5,160C 187,159.5 187.5,159 188,158.5C 188.333,154.833 188.667,151.167 189,147.5C 189.667,146.833 190.333,146.167 191,145.5C 193.041,146.423 195.208,146.756 197.5,146.5 Z"/></g>
<g><path style="opacity:1" fill="#875e24" d="M 138.5,162.5 C 136.409,162.318 134.409,162.652 132.5,163.5C 132.511,162.559 132.011,161.892 131,161.5C 127.894,163.876 125.061,163.543 122.5,160.5C 124.415,160.784 126.081,160.451 127.5,159.5C 130.518,159.665 133.518,159.498 136.5,159C 144.147,156.838 151.814,154.838 159.5,153C 164.495,150.003 169.828,147.836 175.5,146.5C 177.54,145.481 179.54,145.481 181.5,146.5C 176.691,148.405 172.025,150.572 167.5,153C 157.656,155.893 147.99,159.059 138.5,162.5 Z"/></g>
<g><path style="opacity:1" fill="#574d44" d="M 15.5,157.5 C 18.8344,159.834 22.501,161.667 26.5,163C 26.9574,163.414 27.2907,163.914 27.5,164.5C 22.5307,163.695 17.8641,161.695 13.5,158.5C 14.4916,158.672 15.1583,158.338 15.5,157.5 Z"/></g>
<g><path style="opacity:1" fill="#ebdacb" d="M 55.5,163.5 C 56.5676,162.566 57.901,162.232 59.5,162.5C 66.1667,162.5 72.8333,162.5 79.5,162.5C 80.5,162.5 81.5,162.5 82.5,162.5C 83.2625,163.268 84.2625,163.768 85.5,164C 83.8659,164.494 82.1992,164.66 80.5,164.5C 72.1952,163.668 63.8619,163.335 55.5,163.5 Z"/></g>
<g><path style="opacity:1" fill="#916f3a" d="M 177.5,144.5 C 180.206,144.575 182.873,144.908 185.5,145.5C 185.783,153.569 185.783,161.569 185.5,169.5C 185.158,170.338 184.492,170.672 183.5,170.5C 173.828,170.666 164.161,170.5 154.5,170C 145.628,167.966 136.628,167.133 127.5,167.5C 127.5,167.167 127.5,166.833 127.5,166.5C 130.74,166.232 133.906,165.566 137,164.5C 138.03,164.164 138.53,163.497 138.5,162.5C 147.99,159.059 157.656,155.893 167.5,153C 172.025,150.572 176.691,148.405 181.5,146.5C 179.54,145.481 177.54,145.481 175.5,146.5C 175.833,145.5 176.5,144.833 177.5,144.5 Z"/></g>
<g><path style="opacity:1" fill="#93703c" d="M 231.5,150.5 C 233.167,150.5 234.833,150.5 236.5,150.5C 236.047,155.115 233.38,157.615 228.5,158C 226.871,160.621 224.538,162.454 221.5,163.5C 216.191,164.473 210.858,165.306 205.5,166C 204.584,166.278 203.918,166.778 203.5,167.5C 202.5,167.5 201.5,167.5 200.5,167.5C 200.433,166.041 200.766,164.708 201.5,163.5C 208.218,162.31 214.718,160.643 221,158.5C 221.414,158.957 221.914,159.291 222.5,159.5C 223.452,157.955 223.785,156.288 223.5,154.5C 227.085,154.708 229.751,153.375 231.5,150.5 Z"/></g>
<g><path style="opacity:1" fill="#a19890" d="M 82.5,162.5 C 83.8333,162.5 85.1667,162.5 86.5,162.5C 89.0076,164.554 92.0076,165.554 95.5,165.5C 104.066,168.003 112.732,170.503 121.5,173C 132.68,174.97 143.68,177.137 154.5,179.5C 151.918,179.025 149.918,179.692 148.5,181.5C 146.409,181.318 144.409,181.652 142.5,182.5C 141.77,181.066 140.77,179.9 139.5,179C 136.167,178.667 132.833,178.333 129.5,178C 128.833,177.333 128.167,176.667 127.5,176C 124.5,175.667 121.5,175.333 118.5,175C 105.95,170.533 93.2838,167.033 80.5,164.5C 82.1992,164.66 83.8659,164.494 85.5,164C 84.2625,163.768 83.2625,163.268 82.5,162.5 Z"/></g>
<g><path style="opacity:1" fill="#644932" d="M 86.5,162.5 C 93.1823,162.946 99.849,163.613 106.5,164.5C 108.32,164.351 109.82,163.684 111,162.5C 114.149,164.362 117.649,165.029 121.5,164.5C 123.626,165.048 125.626,165.715 127.5,166.5C 127.5,166.833 127.5,167.167 127.5,167.5C 122.146,167.431 116.813,167.098 111.5,166.5C 106.187,165.902 100.854,165.569 95.5,165.5C 92.0076,165.554 89.0076,164.554 86.5,162.5 Z"/></g>
<g><path style="opacity:1" fill="#a6813c" d="M 177.5,144.5 C 181.978,143.953 186.645,143.953 191.5,144.5C 197.084,144.255 202.417,144.922 207.5,146.5C 204.167,146.5 200.833,146.5 197.5,146.5C 195.208,146.756 193.041,146.423 191,145.5C 190.333,146.167 189.667,146.833 189,147.5C 188.667,151.167 188.333,154.833 188,158.5C 187.5,159 187,159.5 186.5,160C 188.143,165.576 191.143,166.743 195.5,163.5C 197.653,162.427 199.653,162.427 201.5,163.5C 200.766,164.708 200.433,166.041 200.5,167.5C 195.617,169.646 190.617,170.313 185.5,169.5C 185.783,161.569 185.783,153.569 185.5,145.5C 182.873,144.908 180.206,144.575 177.5,144.5 Z"/></g>
<g><path style="opacity:1" fill="#3e352d" d="M -0.5,154.5 C 1.487,155.164 3.15366,156.331 4.5,158C 5.79323,158.49 7.12656,158.657 8.5,158.5C 12.5618,160.029 16.5618,161.862 20.5,164C 22.5944,164.862 23.5944,166.028 23.5,167.5C 24.6868,166.347 25.6868,166.347 26.5,167.5C 21.4001,168.8 16.4001,168.8 11.5,167.5C 7.21595,167.531 3.21595,166.531 -0.5,164.5C -0.5,161.167 -0.5,157.833 -0.5,154.5 Z"/></g>
<g><path style="opacity:1" fill="#8a8582" d="M 11.5,167.5 C 11.6395,165.663 12.3061,165.33 13.5,166.5C 13.0431,167.298 12.3764,167.631 11.5,167.5 Z"/></g>
<g><path style="opacity:1" fill="#9e7f56" d="M 207.5,146.5 C 215.517,146.501 223.517,146.834 231.5,147.5C 236.784,148.769 242.117,150.269 247.5,152C 248.479,153.779 248.146,155.445 246.5,157C 241.22,159.999 235.886,162.999 230.5,166C 222.666,167.39 214.999,169.39 207.5,172C 205.288,172.789 203.288,172.622 201.5,171.5C 201.196,170.85 200.863,170.183 200.5,169.5C 201.602,168.824 202.602,168.158 203.5,167.5C 203.918,166.778 204.584,166.278 205.5,166C 210.858,165.306 216.191,164.473 221.5,163.5C 224.538,162.454 226.871,160.621 228.5,158C 233.38,157.615 236.047,155.115 236.5,150.5C 234.833,150.5 233.167,150.5 231.5,150.5C 223.543,148.948 215.543,147.614 207.5,146.5 Z"/></g>
<g><path style="opacity:1" fill="#7e7261" d="M 55.5,164.5 C 62.3213,165.329 69.3213,165.829 76.5,166C 86.0842,167.364 95.4176,169.697 104.5,173C 102.189,172.845 99.856,172.845 97.5,173C 99.3197,173.2 100.653,174.034 101.5,175.5C 85.8803,170.571 69.8803,168.738 53.5,170C 52.2625,170.232 51.2625,170.732 50.5,171.5C 48.567,171.271 46.9003,170.438 45.5,169C 46.7736,168.023 46.7736,167.189 45.5,166.5C 48.6557,165.566 51.9891,164.899 55.5,164.5 Z"/></g>
<g><path style="opacity:1" fill="#7c736a" d="M -0.5,165.5 C -0.5,165.167 -0.5,164.833 -0.5,164.5C 3.21595,166.531 7.21595,167.531 11.5,167.5C 16.4001,168.8 21.4001,168.8 26.5,167.5C 25.2379,169.268 24.2379,170.935 23.5,172.5C 19.9581,172.187 16.6248,172.521 13.5,173.5C 9.85806,172.92 6.19139,172.42 2.5,172C 8.14608,171.11 8.47942,170.11 3.5,169C 2.61587,167.28 1.28254,166.114 -0.5,165.5 Z"/></g>
<g><path style="opacity:1" fill="#473e33" d="M 36.5,164.5 C 39.248,166.044 42.248,166.71 45.5,166.5C 46.7736,167.189 46.7736,168.023 45.5,169C 46.9003,170.438 48.567,171.271 50.5,171.5C 54.8966,173.015 59.2299,174.682 63.5,176.5C 53.323,176.212 43.323,175.545 33.5,174.5C 36.8984,174.82 40.2317,174.487 43.5,173.5C 43.0381,171.709 41.8715,170.709 40,170.5C 34.5162,171.35 29.0162,172.017 23.5,172.5C 24.2379,170.935 25.2379,169.268 26.5,167.5C 30.1191,166.82 33.7858,166.32 37.5,166C 36.944,165.617 36.6107,165.117 36.5,164.5 Z"/></g>
<g><path style="opacity:1" fill="#967951" d="M 111.5,166.5 C 116.813,167.098 122.146,167.431 127.5,167.5C 136.628,167.133 145.628,167.966 154.5,170C 164.161,170.5 173.828,170.666 183.5,170.5C 183.5,170.833 183.5,171.167 183.5,171.5C 164.549,172.088 145.716,171.088 127,168.5C 123.979,168.502 121.146,168.836 118.5,169.5C 115.615,169.357 113.282,168.357 111.5,166.5 Z"/></g>
<g><path style="opacity:1" fill="#2a2217" d="M 33.5,174.5 C 26.8092,174.546 20.1426,174.212 13.5,173.5C 16.6248,172.521 19.9581,172.187 23.5,172.5C 29.0162,172.017 34.5162,171.35 40,170.5C 41.8715,170.709 43.0381,171.709 43.5,173.5C 40.2317,174.487 36.8984,174.82 33.5,174.5 Z"/></g>
<g><path style="opacity:1" fill="#72634b" d="M 95.5,165.5 C 100.854,165.569 106.187,165.902 111.5,166.5C 113.282,168.357 115.615,169.357 118.5,169.5C 130.649,172.619 142.983,174.952 155.5,176.5C 173.32,177.727 190.987,179.061 208.5,180.5C 208.167,180.5 207.833,180.5 207.5,180.5C 204.833,179.167 202.167,179.167 199.5,180.5C 197.833,180.5 196.167,180.5 194.5,180.5C 193.5,180.5 192.5,180.5 191.5,180.5C 179.345,179.505 167.011,179.171 154.5,179.5C 143.68,177.137 132.68,174.97 121.5,173C 112.732,170.503 104.066,168.003 95.5,165.5 Z"/></g>
<g><path style="opacity:1" fill="#b0915e" d="M 200.5,167.5 C 201.5,167.5 202.5,167.5 203.5,167.5C 202.602,168.158 201.602,168.824 200.5,169.5C 200.863,170.183 201.196,170.85 201.5,171.5C 196.563,171.354 195.897,172.354 199.5,174.5C 198.311,175.429 196.978,175.762 195.5,175.5C 190.868,175.528 186.868,174.194 183.5,171.5C 183.5,171.167 183.5,170.833 183.5,170.5C 184.492,170.672 185.158,170.338 185.5,169.5C 190.617,170.313 195.617,169.646 200.5,167.5 Z"/></g>
<g><path style="opacity:1" fill="#a58d6c" d="M 231.5,147.5 C 241.199,148.172 250.865,149.172 260.5,150.5C 260.5,161.167 260.5,171.833 260.5,182.5C 257.001,182.741 256.668,181.908 259.5,180C 255.33,176.174 250.83,172.674 246,169.5C 243.901,170.287 241.734,170.62 239.5,170.5C 239.5,172.167 239.5,173.833 239.5,175.5C 231.5,175.5 223.5,175.5 215.5,175.5C 215.5,176.833 215.5,178.167 215.5,179.5C 213.265,179.205 211.265,179.539 209.5,180.5C 209.167,180.5 208.833,180.5 208.5,180.5C 190.987,179.061 173.32,177.727 155.5,176.5C 169.819,177.514 184.152,177.68 198.5,177C 197.263,176.768 196.263,176.268 195.5,175.5C 196.978,175.762 198.311,175.429 199.5,174.5C 195.897,172.354 196.563,171.354 201.5,171.5C 203.288,172.622 205.288,172.789 207.5,172C 214.999,169.39 222.666,167.39 230.5,166C 235.886,162.999 241.22,159.999 246.5,157C 248.146,155.445 248.479,153.779 247.5,152C 242.117,150.269 236.784,148.769 231.5,147.5 Z"/></g>
<g><path style="opacity:1" fill="#b69e79" d="M 118.5,169.5 C 121.146,168.836 123.979,168.502 127,168.5C 145.716,171.088 164.549,172.088 183.5,171.5C 186.868,174.194 190.868,175.528 195.5,175.5C 196.263,176.268 197.263,176.768 198.5,177C 184.152,177.68 169.819,177.514 155.5,176.5C 142.983,174.952 130.649,172.619 118.5,169.5 Z"/></g>
<g><path style="opacity:1" fill="#a49b8a" d="M -0.5,165.5 C 1.28254,166.114 2.61587,167.28 3.5,169C 8.47942,170.11 8.14608,171.11 2.5,172C 6.19139,172.42 9.85806,172.92 13.5,173.5C 20.1426,174.212 26.8092,174.546 33.5,174.5C 43.323,175.545 53.323,176.212 63.5,176.5C 62.0484,177.302 60.3817,177.802 58.5,178C 61.1667,178.667 61.1667,179.333 58.5,180C 60.8265,182.803 62.4932,186.469 63.5,191C 63.3166,192.684 62.6499,192.85 61.5,191.5C 60.8333,191.5 60.1667,191.5 59.5,191.5C 57.4078,191.439 55.9078,190.439 55,188.5C 47.0998,187.535 38.7665,187.535 30,188.5C 28.3783,188.046 27.2116,187.046 26.5,185.5C 17.5246,184.502 8.52461,184.168 -0.5,184.5C -0.5,178.167 -0.5,171.833 -0.5,165.5 Z"/></g>
<g><path style="opacity:1" fill="#6c6255" d="M 55.5,163.5 C 63.8619,163.335 72.1952,163.668 80.5,164.5C 93.2838,167.033 105.95,170.533 118.5,175C 121.5,175.333 124.5,175.667 127.5,176C 128.167,176.667 128.833,177.333 129.5,178C 132.833,178.333 136.167,178.667 139.5,179C 140.77,179.9 141.77,181.066 142.5,182.5C 144.409,181.652 146.409,181.318 148.5,181.5C 152.249,181.751 155.915,182.417 159.5,183.5C 172.693,184.787 186.026,184.787 199.5,183.5C 199.5,182.5 199.5,181.5 199.5,180.5C 202.167,179.167 204.833,179.167 207.5,180.5C 205.5,180.5 203.5,180.5 201.5,180.5C 201.5,182.5 201.5,184.5 201.5,186.5C 186.167,186.5 170.833,186.5 155.5,186.5C 154.167,186.5 152.833,186.5 151.5,186.5C 145.826,184.175 139.826,182.842 133.5,182.5C 131.784,182.371 130.117,182.038 128.5,181.5C 119.357,180.271 110.357,178.271 101.5,175.5C 100.653,174.034 99.3197,173.2 97.5,173C 99.856,172.845 102.189,172.845 104.5,173C 95.4176,169.697 86.0842,167.364 76.5,166C 69.3213,165.829 62.3213,165.329 55.5,164.5C 55.5,164.167 55.5,163.833 55.5,163.5 Z"/></g>
<g><path style="opacity:1" fill="#bdb4a3" d="M 154.5,179.5 C 167.011,179.171 179.345,179.505 191.5,180.5C 179.829,180.333 168.162,180.5 156.5,181C 158.175,181.985 159.842,182.819 161.5,183.5C 160.833,183.5 160.167,183.5 159.5,183.5C 155.915,182.417 152.249,181.751 148.5,181.5C 149.918,179.692 151.918,179.025 154.5,179.5 Z"/></g>
<g><path style="opacity:1" fill="#e7ddd2" d="M 191.5,180.5 C 192.5,180.5 193.5,180.5 194.5,180.5C 194.5,181.5 194.5,182.5 194.5,183.5C 183.5,183.5 172.5,183.5 161.5,183.5C 159.842,182.819 158.175,181.985 156.5,181C 168.162,180.5 179.829,180.333 191.5,180.5 Z"/></g>
<g><path style="opacity:1" fill="#9f978f" d="M 194.5,180.5 C 196.167,180.5 197.833,180.5 199.5,180.5C 199.5,181.5 199.5,182.5 199.5,183.5C 186.026,184.787 172.693,184.787 159.5,183.5C 160.167,183.5 160.833,183.5 161.5,183.5C 172.5,183.5 183.5,183.5 194.5,183.5C 194.5,182.5 194.5,181.5 194.5,180.5 Z"/></g>
<g><path style="opacity:1" fill="#b0a188" d="M 101.5,175.5 C 110.357,178.271 119.357,180.271 128.5,181.5C 129.643,183.101 128.976,183.767 126.5,183.5C 106.876,180.634 87.2096,178.468 67.5,177C 78.6481,179.523 89.9814,181.356 101.5,182.5C 101.953,183.458 102.619,184.292 103.5,185C 106.5,185.333 109.5,185.667 112.5,186C 103.387,187.842 94.5534,186.676 86,182.5C 78.494,182.97 70.994,183.304 63.5,183.5C 63.5,185.167 63.5,186.833 63.5,188.5C 65.1439,188.714 66.6439,188.38 68,187.5C 68.3076,188.308 68.8076,188.975 69.5,189.5C 71.0421,188.253 72.5421,188.253 74,189.5C 75.4194,188.54 76.9194,187.707 78.5,187C 77.2888,186.107 77.2888,185.274 78.5,184.5C 79.4255,187.829 78.4255,190.663 75.5,193C 71.3333,194.5 67.1667,196 63,197.5C 62.187,195.564 61.687,193.564 61.5,191.5C 62.6499,192.85 63.3166,192.684 63.5,191C 62.4932,186.469 60.8265,182.803 58.5,180C 61.1667,179.333 61.1667,178.667 58.5,178C 60.3817,177.802 62.0484,177.302 63.5,176.5C 59.2299,174.682 54.8966,173.015 50.5,171.5C 51.2625,170.732 52.2625,170.232 53.5,170C 69.8803,168.738 85.8803,170.571 101.5,175.5 Z"/></g>
<g><path style="opacity:1" fill="#6d5b3f" d="M 128.5,181.5 C 130.117,182.038 131.784,182.371 133.5,182.5C 133.423,183.75 132.756,184.583 131.5,185C 136.374,185.858 141.04,187.024 145.5,188.5C 144.167,188.5 142.833,188.5 141.5,188.5C 128.243,186.176 114.91,184.176 101.5,182.5C 89.9814,181.356 78.6481,179.523 67.5,177C 87.2096,178.468 106.876,180.634 126.5,183.5C 128.976,183.767 129.643,183.101 128.5,181.5 Z"/></g>
<g><path style="opacity:1" fill="#4c3c26" d="M 133.5,182.5 C 139.826,182.842 145.826,184.175 151.5,186.5C 150.127,186.343 148.793,186.51 147.5,187C 148.416,187.278 149.082,187.778 149.5,188.5C 148.167,188.5 146.833,188.5 145.5,188.5C 141.04,187.024 136.374,185.858 131.5,185C 132.756,184.583 133.423,183.75 133.5,182.5 Z"/></g>
<g><path style="opacity:1" fill="#928b79" d="M -0.5,184.5 C 8.52461,184.168 17.5246,184.502 26.5,185.5C 27.2116,187.046 28.3783,188.046 30,188.5C 38.7665,187.535 47.0998,187.535 55,188.5C 55.9078,190.439 57.4078,191.439 59.5,191.5C 61.0916,194.966 61.7583,198.633 61.5,202.5C 61.5,202.833 61.5,203.167 61.5,203.5C 55.0176,199.593 48.0176,198.093 40.5,199C 41.6956,199.654 41.6956,200.154 40.5,200.5C 35.6689,198.96 30.8355,198.293 26,198.5C 23.9352,200.216 21.6018,201.549 19,202.5C 12.6121,202.285 6.11207,202.285 -0.5,202.5C -0.5,196.5 -0.5,190.5 -0.5,184.5 Z"/></g>
<g><path style="opacity:1" fill="#493f33" d="M 207.5,180.5 C 207.833,180.5 208.167,180.5 208.5,180.5C 208.5,183.167 208.5,185.833 208.5,188.5C 202.833,188.5 197.167,188.5 191.5,188.5C 186.475,190.72 181.142,191.72 175.5,191.5C 173.265,191.795 171.265,191.461 169.5,190.5C 171.604,190.799 173.604,190.466 175.5,189.5C 174.624,188.749 173.624,188.249 172.5,188C 166.652,187.827 160.985,187.327 155.5,186.5C 170.833,186.5 186.167,186.5 201.5,186.5C 201.5,184.5 201.5,182.5 201.5,180.5C 203.5,180.5 205.5,180.5 207.5,180.5 Z"/></g>
<g><path style="opacity:1" fill="#2b2217" d="M 151.5,186.5 C 152.833,186.5 154.167,186.5 155.5,186.5C 160.985,187.327 166.652,187.827 172.5,188C 173.624,188.249 174.624,188.749 175.5,189.5C 173.604,190.466 171.604,190.799 169.5,190.5C 162.803,190.115 156.136,189.448 149.5,188.5C 149.082,187.778 148.416,187.278 147.5,187C 148.793,186.51 150.127,186.343 151.5,186.5 Z"/></g>
<g><path style="opacity:1" fill="#a29782" d="M 101.5,182.5 C 114.91,184.176 128.243,186.176 141.5,188.5C 142.558,190.041 144.058,191.041 146,191.5C 151.45,192.208 156.616,193.708 161.5,196C 163.641,197.308 165.641,198.808 167.5,200.5C 166.167,200.833 164.833,201.167 163.5,201.5C 152.367,199.535 141.2,198.868 130,199.5C 115.159,198.179 100.326,197.179 85.5,196.5C 77.4933,198.824 69.4933,200.824 61.5,202.5C 61.7583,198.633 61.0916,194.966 59.5,191.5C 60.1667,191.5 60.8333,191.5 61.5,191.5C 61.687,193.564 62.187,195.564 63,197.5C 67.1667,196 71.3333,194.5 75.5,193C 78.4255,190.663 79.4255,187.829 78.5,184.5C 77.2888,185.274 77.2888,186.107 78.5,187C 76.9194,187.707 75.4194,188.54 74,189.5C 72.5421,188.253 71.0421,188.253 69.5,189.5C 68.8076,188.975 68.3076,188.308 68,187.5C 66.6439,188.38 65.1439,188.714 63.5,188.5C 63.5,186.833 63.5,185.167 63.5,183.5C 70.994,183.304 78.494,182.97 86,182.5C 94.5534,186.676 103.387,187.842 112.5,186C 109.5,185.667 106.5,185.333 103.5,185C 102.619,184.292 101.953,183.458 101.5,182.5 Z"/></g>
<g><path style="opacity:1" fill="#6a6054" d="M 149.5,188.5 C 156.136,189.448 162.803,190.115 169.5,190.5C 171.265,191.461 173.265,191.795 175.5,191.5C 175.5,191.833 175.5,192.167 175.5,192.5C 168.83,192.111 162.164,191.611 155.5,191C 153.389,190.155 151.389,189.322 149.5,188.5 Z"/></g>
<g><path style="opacity:1" fill="#9c8e78" d="M 260.5,182.5 C 260.5,188.167 260.5,193.833 260.5,199.5C 259.07,199.421 257.736,199.754 256.5,200.5C 252.063,198.533 247.396,197.2 242.5,196.5C 241.833,196.833 241.167,197.167 240.5,197.5C 230.388,194.521 220.055,192.688 209.5,192C 208.833,191.667 208.167,191.333 207.5,191C 209.362,187.851 210.029,184.351 209.5,180.5C 211.265,179.539 213.265,179.205 215.5,179.5C 215.5,178.167 215.5,176.833 215.5,175.5C 223.5,175.5 231.5,175.5 239.5,175.5C 239.5,173.833 239.5,172.167 239.5,170.5C 241.734,170.62 243.901,170.287 246,169.5C 250.83,172.674 255.33,176.174 259.5,180C 256.668,181.908 257.001,182.741 260.5,182.5 Z"/></g>
<g><path style="opacity:1" fill="#5c4a2b" d="M 191.5,188.5 C 191.5,189.5 191.5,190.5 191.5,191.5C 196.731,191.444 201.731,192.111 206.5,193.5C 203.941,193.198 201.607,193.532 199.5,194.5C 192.471,194.623 185.471,194.29 178.5,193.5C 177.209,193.737 176.209,193.404 175.5,192.5C 175.5,192.167 175.5,191.833 175.5,191.5C 181.142,191.72 186.475,190.72 191.5,188.5 Z"/></g>
<g><path style="opacity:1" fill="#958a73" d="M 141.5,188.5 C 142.833,188.5 144.167,188.5 145.5,188.5C 146.833,188.5 148.167,188.5 149.5,188.5C 151.389,189.322 153.389,190.155 155.5,191C 162.164,191.611 168.83,192.111 175.5,192.5C 176.209,193.404 177.209,193.737 178.5,193.5C 189.603,195.808 200.937,197.474 212.5,198.5C 212.552,200.903 212.219,203.236 211.5,205.5C 209.616,204.618 208.283,203.118 207.5,201C 203.179,200.102 198.845,199.269 194.5,198.5C 192.701,198.577 191.034,199.077 189.5,200C 189.833,200.333 190.167,200.667 190.5,201C 186.21,202.048 181.876,202.882 177.5,203.5C 150.185,203.804 122.852,203.471 95.5,202.5C 85.3513,202.129 75.3513,203.129 65.5,205.5C 63.9271,205.248 62.5938,204.582 61.5,203.5C 61.5,203.167 61.5,202.833 61.5,202.5C 69.4933,200.824 77.4933,198.824 85.5,196.5C 100.326,197.179 115.159,198.179 130,199.5C 141.2,198.868 152.367,199.535 163.5,201.5C 164.833,201.167 166.167,200.833 167.5,200.5C 165.641,198.808 163.641,197.308 161.5,196C 156.616,193.708 151.45,192.208 146,191.5C 144.058,191.041 142.558,190.041 141.5,188.5 Z"/></g>
<g><path style="opacity:1" fill="#877f6a" d="M 61.5,203.5 C 62.5938,204.582 63.9271,205.248 65.5,205.5C 75.3513,203.129 85.3513,202.129 95.5,202.5C 122.852,203.471 150.185,203.804 177.5,203.5C 181.876,202.882 186.21,202.048 190.5,201C 190.167,200.667 189.833,200.333 189.5,200C 191.034,199.077 192.701,198.577 194.5,198.5C 198.845,199.269 203.179,200.102 207.5,201C 208.283,203.118 209.616,204.618 211.5,205.5C 211.265,206.097 210.765,206.43 210,206.5C 208.837,204.672 207.17,203.672 205,203.5C 201.849,204.093 198.682,204.593 195.5,205C 154.167,205.333 112.833,205.667 71.5,206C 70.0577,206.377 69.0577,207.21 68.5,208.5C 66.8333,208.5 65.1667,208.5 63.5,208.5C 61.157,205.41 57.9903,203.744 54,203.5C 35.8687,205.03 17.7021,205.697 -0.5,205.5C -0.5,204.5 -0.5,203.5 -0.5,202.5C 6.11207,202.285 12.6121,202.285 19,202.5C 21.6018,201.549 23.9352,200.216 26,198.5C 30.8355,198.293 35.6689,198.96 40.5,200.5C 41.6956,200.154 41.6956,199.654 40.5,199C 48.0176,198.093 55.0176,199.593 61.5,203.5 Z"/></g>
<g><path style="opacity:1" fill="#716b5b" d="M 63.5,208.5 C 42.1667,208.5 20.8333,208.5 -0.5,208.5C -0.5,207.5 -0.5,206.5 -0.5,205.5C 17.7021,205.697 35.8687,205.03 54,203.5C 57.9903,203.744 61.157,205.41 63.5,208.5 Z"/></g>
<g><path style="opacity:1" fill="#7a715a" d="M 208.5,180.5 C 208.833,180.5 209.167,180.5 209.5,180.5C 210.029,184.351 209.362,187.851 207.5,191C 208.167,191.333 208.833,191.667 209.5,192C 220.055,192.688 230.388,194.521 240.5,197.5C 241.167,197.167 241.833,196.833 242.5,196.5C 247.396,197.2 252.063,198.533 256.5,200.5C 257.736,199.754 259.07,199.421 260.5,199.5C 260.5,201.167 260.5,202.833 260.5,204.5C 247.242,205.315 233.908,205.815 220.5,206C 217.325,205.947 214.658,206.78 212.5,208.5C 164.5,208.5 116.5,208.5 68.5,208.5C 69.0577,207.21 70.0577,206.377 71.5,206C 112.833,205.667 154.167,205.333 195.5,205C 198.682,204.593 201.849,204.093 205,203.5C 207.17,203.672 208.837,204.672 210,206.5C 210.765,206.43 211.265,206.097 211.5,205.5C 212.219,203.236 212.552,200.903 212.5,198.5C 200.937,197.474 189.603,195.808 178.5,193.5C 185.471,194.29 192.471,194.623 199.5,194.5C 208.007,197.25 216.673,197.917 225.5,196.5C 224.975,195.808 224.308,195.308 223.5,195C 217.877,193.971 212.21,193.471 206.5,193.5C 201.731,192.111 196.731,191.444 191.5,191.5C 191.5,190.5 191.5,189.5 191.5,188.5C 197.167,188.5 202.833,188.5 208.5,188.5C 208.5,185.833 208.5,183.167 208.5,180.5 Z"/></g>
<g><path style="opacity:1" fill="#4a3921" d="M 199.5,194.5 C 201.607,193.532 203.941,193.198 206.5,193.5C 212.21,193.471 217.877,193.971 223.5,195C 224.308,195.308 224.975,195.808 225.5,196.5C 216.673,197.917 208.007,197.25 199.5,194.5 Z"/></g>
<g><path style="opacity:1" fill="#66614e" d="M 260.5,204.5 C 260.5,205.833 260.5,207.167 260.5,208.5C 244.5,208.5 228.5,208.5 212.5,208.5C 214.658,206.78 217.325,205.947 220.5,206C 233.908,205.815 247.242,205.315 260.5,204.5 Z"/></g>
</svg>
