<?xml version="1.0" encoding="UTF-8"?>
<!DOCTYPE svg PUBLIC "-//W3C//DTD SVG 1.1//EN" "http://www.w3.org/Graphics/SVG/1.1/DTD/svg11.dtd">
<svg xmlns="http://www.w3.org/2000/svg" version="1.1" width="148px" height="40px" style="shape-rendering:geometricPrecision; text-rendering:geometricPrecision; image-rendering:optimizeQuality; fill-rule:evenodd; clip-rule:evenodd" xmlns:xlink="http://www.w3.org/1999/xlink">
<g><path style="opacity:0.96" fill="#f2cd14" d="M 7.5,0.5 C 7.61071,1.11742 7.94404,1.61742 8.5,2C 4.07172,4.05149 3.40506,7.05149 6.5,11C 8.19322,11.8466 9.85989,12.6799 11.5,13.5C 11.56,14.0431 11.8933,14.3764 12.5,14.5C 13.7928,12.3635 13.7928,10.3635 12.5,8.5C 12.1412,6.62901 11.1412,5.12901 9.5,4C 11.2816,3.8782 12.9482,4.3782 14.5,5.5C 22.6898,10.5436 25.5231,17.8769 23,27.5C 21.5258,31.4379 20.3591,35.4379 19.5,39.5C 17.8333,39.5 16.1667,39.5 14.5,39.5C 7.83333,36.1667 2.83333,31.1667 -0.5,24.5C -0.5,20.5 -0.5,16.5 -0.5,12.5C 1.65552,9.56256 3.15552,6.22923 4,2.5C 5.11268,1.69499 6.27935,1.02832 7.5,0.5 Z"/></g>
<g><path style="opacity:1" fill="#576652" d="M 8.5,-0.5 C 11.8333,-0.5 15.1667,-0.5 18.5,-0.5C 18.9528,0.458367 19.6195,1.2917 20.5,2C 18.5681,3.4585 16.5681,4.62517 14.5,5.5C 12.9482,4.3782 11.2816,3.8782 9.5,4C 11.1412,5.12901 12.1412,6.62901 12.5,8.5C 12.7845,10.4147 12.4511,12.0813 11.5,13.5C 9.85989,12.6799 8.19322,11.8466 6.5,11C 3.40506,7.05149 4.07172,4.05149 8.5,2C 7.94404,1.61742 7.61071,1.11742 7.5,0.5C 8.16667,0.5 8.5,0.166667 8.5,-0.5 Z"/></g>
<g><path style="opacity:0.996" fill="#a69b34" d="M 7.5,5.5 C 9.41607,6.66531 10.2494,8.33198 10,10.5C 8.62829,9.08992 7.79495,7.42325 7.5,5.5 Z"/></g>
<g><path style="opacity:0.996" fill="#999238" d="M 12.5,8.5 C 13.7928,10.3635 13.7928,12.3635 12.5,14.5C 11.8933,14.3764 11.56,14.0431 11.5,13.5C 12.4511,12.0813 12.7845,10.4147 12.5,8.5 Z"/></g>
<g><path style="opacity:0.799" fill="#475c56" d="M 32.5,16.5 C 36.1569,16.1201 37.1569,17.4534 35.5,20.5C 35.8333,22.8333 36.8333,23.1667 38.5,21.5C 39.4287,22.6888 39.762,24.0222 39.5,25.5C 37.1667,25.5 34.8333,25.5 32.5,25.5C 32.5,22.5 32.5,19.5 32.5,16.5 Z"/></g>
<g><path style="opacity:0.697" fill="#495d56" d="M 41.5,16.5 C 43.288,16.2148 44.9547,16.5481 46.5,17.5C 45.1667,19.8333 45.1667,22.1667 46.5,24.5C 44.8333,25.8333 43.1667,25.8333 41.5,24.5C 42.7026,21.8401 42.7026,19.1735 41.5,16.5 Z"/></g>
<g><path style="opacity:0.797" fill="#485e57" d="M 48.5,16.5 C 51.1667,16.5 53.8333,16.5 56.5,16.5C 56.5514,18.5695 55.8847,20.4029 54.5,22C 55.903,24.1288 55.2363,25.2955 52.5,25.5C 51.8333,25.1667 51.1667,24.8333 50.5,24.5C 51.4847,22.9017 51.6514,21.235 51,19.5C 50.586,19.9574 50.086,20.2907 49.5,20.5C 48.5713,19.3112 48.238,17.9778 48.5,16.5 Z"/></g>
<g><path style="opacity:0.779" fill="#465b55" d="M 58.5,16.5 C 61.1667,16.5 63.8333,16.5 66.5,16.5C 66.5514,18.5695 65.8847,20.4029 64.5,22C 65.903,24.1288 65.2363,25.2955 62.5,25.5C 61.8333,25.1667 61.1667,24.8333 60.5,24.5C 61.4847,22.9017 61.6514,21.235 61,19.5C 60.586,19.9574 60.086,20.2907 59.5,20.5C 58.5713,19.3112 58.238,17.9778 58.5,16.5 Z"/></g>
<g><path style="opacity:0.713" fill="#485d57" d="M 68.5,16.5 C 72.4618,15.8649 73.7952,17.1982 72.5,20.5C 72.8333,22.8333 73.8333,23.1667 75.5,21.5C 76.731,22.6507 76.731,23.8173 75.5,25C 73.0982,25.8141 70.7649,25.6474 68.5,24.5C 69.7026,21.8401 69.7026,19.1735 68.5,16.5 Z"/></g>
<g><path style="opacity:0.73" fill="#495e57" d="M 78.5,16.5 C 80.8333,16.5 83.1667,16.5 85.5,16.5C 85.5792,17.9305 85.2458,19.2638 84.5,20.5C 87.4292,23.8594 86.5959,25.526 82,25.5C 80.8333,25.1667 79.6667,24.8333 78.5,24.5C 79.7026,21.8401 79.7026,19.1735 78.5,16.5 Z"/></g>
<g><path style="opacity:0.76" fill="#4a5f57" d="M 94.5,16.5 C 98.1569,16.1201 99.1569,17.4534 97.5,20.5C 97.8333,22.8333 98.8333,23.1667 100.5,21.5C 101.429,22.6888 101.762,24.0222 101.5,25.5C 99.1667,25.5 96.8333,25.5 94.5,25.5C 94.5,22.5 94.5,19.5 94.5,16.5 Z"/></g>
<g><path style="opacity:0.719" fill="#485e57" d="M 103.5,16.5 C 106.167,16.5 108.833,16.5 111.5,16.5C 110.459,19.4578 110.459,22.4578 111.5,25.5C 108.753,25.8134 106.086,25.48 103.5,24.5C 104.703,21.8401 104.703,19.1735 103.5,16.5 Z"/></g>
<g><path style="opacity:0.795" fill="#485c55" d="M 113.5,16.5 C 115.821,16.2289 117.821,16.8955 119.5,18.5C 120.935,16.5989 122.602,16.2655 124.5,17.5C 123.962,19.7638 124.296,22.0972 125.5,24.5C 121.388,25.3883 117.388,25.3883 113.5,24.5C 114.703,21.8401 114.703,19.1735 113.5,16.5 Z"/></g>
<g><path style="opacity:0.741" fill="#465a54" d="M 128.5,16.5 C 135.61,15.9037 137.61,18.7371 134.5,25C 127.783,25.7631 125.783,22.9298 128.5,16.5 Z M 130.5,18.5 C 133.38,19.5233 133.88,21.19 132,23.5C 130.731,22.0953 130.231,20.4286 130.5,18.5 Z"/></g>
<g><path style="opacity:0.723" fill="#646d53" d="M 147.5,12.5 C 147.5,16.5 147.5,20.5 147.5,24.5C 144.496,23.182 141.496,23.182 138.5,24.5C 139.833,22.1667 139.833,19.8333 138.5,17.5C 140.347,16.1696 141.847,16.503 143,18.5C 143.71,17.0267 144.876,16.3601 146.5,16.5C 146.232,14.901 146.566,13.5676 147.5,12.5 Z"/></g>
</svg>
