<?xml version="1.0" standalone="no"?>
<!DOCTYPE svg PUBLIC "-//W3C//DTD SVG 20010904//EN"
 "http://www.w3.org/TR/2001/REC-SVG-20010904/DTD/svg10.dtd">
<svg version="1.0" xmlns="http://www.w3.org/2000/svg"
 width="29.000000pt" height="22.000000pt" viewBox="0 0 29.000000 22.000000"
 preserveAspectRatio="xMidYMid meet">

<g transform="translate(0.000000,22.000000) scale(0.100000,-0.100000)"
fill="#000000" stroke="none">
<path d="M114 206 c-35 -15 -64 -51 -64 -78 0 -10 -9 -18 -23 -20 -21 -3 -21
-4 6 -22 28 -19 29 -19 50 2 19 19 19 22 4 22 -48 0 9 78 63 86 44 6 97 -24
106 -61 20 -81 -60 -135 -148 -100 -10 4 -18 3 -18 -3 0 -6 16 -16 36 -22 73
-24 154 28 154 98 0 39 -29 83 -65 98 -42 17 -61 17 -101 0z"/>
<path d="M150 130 c0 -23 7 -33 30 -45 17 -9 30 -11 30 -6 0 5 -9 13 -20 16
-14 4 -20 15 -20 36 0 16 -4 29 -10 29 -5 0 -10 -13 -10 -30z"/>
</g>
</svg>
